<?xml version="1.0" encoding="utf-8"?>
<!-- Generator: Adobe Illustrator 16.0.3, SVG Export Plug-In . SVG Version: 6.00 Build 0)  -->
<!DOCTYPE svg PUBLIC "-//W3C//DTD SVG 1.1//EN" "http://www.w3.org/Graphics/SVG/1.1/DTD/svg11.dtd">
<svg version="1.1" id="Capa_1" xmlns="http://www.w3.org/2000/svg" xmlns:xlink="http://www.w3.org/1999/xlink" x="0px" y="0px"
	 width="2308px" height="470px" viewBox="0 0 2308 470" enable-background="new 0 0 2308 470" xml:space="preserve">
<g>
	<path fill="#070707" d="M1806.46,326c0,10.667,1.83,20.333,5.5,29c3.66,8.667,8.5,16,14.5,22s13,10.833,21,14.5
		c8,3.333,16.33,5.167,25,5.5c2.66,0,5.33-0.167,8-0.5c3-0.667,6.66-1.833,11-3.5c4.66-1.667,10.5-3.833,17.5-6.5
		c7.33-3,16.83-6.833,28.5-11.5l11,28.5l-40.5,14.5c-5.67,2-11.84,3.667-18.5,5c-6.67,1.333-12.34,2-17,2
		c-12.67,0-24.67-2.167-36-6.5c-11-4.667-20.84-11.167-29.5-19.5c-8.34-8.333-15-18.333-20-30c-5-12-7.5-25.5-7.5-40.5v-5V167
		c0-14,2.33-27,7-39c5-12.333,10.5-21.667,16.5-28c6-6.667,10.83-11.5,14.5-14.5c3.66-3.333,7.5-6.167,11.5-8.5
		c3.33-1.667,8.33-4,15-7c6.66-3.333,16.5-5,29.5-5c4.66,0,10.33,0.833,17,2.5c6.66,1.667,12.66,3.333,18,5l39,15.5l-9,26l-43.5-17
		c-3.34-1.333-6.84-2.5-10.5-3.5c-3.67-1-7.17-1.5-10.5-1.5c-9,0-17.5,2.167-25.5,6.5c-8,4-15.17,9.5-21.5,16.5
		c-6,7-10.84,15-14.5,24c-3.34,9-5,18.333-5,28L1806.46,326z M1992.22,417.5v-44h34.5v44H1992.22z M2214.05,292.5l-41-190h-6.5
		l-41.5,190H2214.05z M2117.05,322l-22,97.5h-27l80-350h42.5l80,350h-26.5l-22.5-97.5H2117.05z"/>
	<path fill="#070707" d="M1806.46,326l-16-0.102v0.052V326H1806.46z M1811.96,355l-14.74,6.234L1811.96,355z M1826.46,377
		l11.31-11.314l0,0L1826.46,377z M1847.46,391.5l-6.67,14.545l0.25,0.117l0.26,0.107L1847.46,391.5z M1872.46,397l-0.62,15.988
		l0.311,0.012h0.31V397z M1880.46,396.5l1.979,15.876l0.75-0.093l0.74-0.164L1880.46,396.5z M1891.46,393l-5.38-15.068l-0.189,0.065
		l-0.181,0.069L1891.46,393z M1908.96,386.5l5.69,14.952l0.18-0.07l0.189-0.073L1908.96,386.5z M1937.46,375l14.92-5.761
		l-5.83-15.11l-15.04,6.016L1937.46,375z M1948.46,403.5l5.39,15.064l15.44-5.528l-5.91-15.297L1948.46,403.5z M1907.96,418
		l5.32,15.088l0.04-0.012l0.029-0.012L1907.96,418z M1889.46,423l-3.14-15.689L1889.46,423z M1836.46,418.5l-6.25,14.729l0.26,0.113
		l0.271,0.104L1836.46,418.5z M1806.96,399l-11.32,11.314l0.11,0.11l0.12,0.108L1806.96,399z M1786.96,369l-14.771,6.154l0.03,0.074
		l0.03,0.074L1786.96,369z M1786.46,128l-14.83-6.011l-0.04,0.104l-0.05,0.107L1786.46,128z M1802.96,100l11.61,11.004l0.14-0.149
		l0.14-0.152L1802.96,100z M1817.46,85.5l10.13,12.383l0.32-0.264l0.31-0.28L1817.46,85.5z M1828.96,77l-7.16-14.311l-0.46,0.231
		l-0.439,0.26L1828.96,77z M1843.96,70l6.56,14.591l0.301-0.134l0.289-0.146L1843.96,70z M1890.46,67.5l-3.88,15.522l0,0
		L1890.46,67.5z M1908.46,72.5l5.91-14.869l-0.56-0.223l-0.58-0.18L1908.46,72.5z M1947.46,88l15.12,5.234l5-14.454l-14.21-5.649
		L1947.46,88z M1938.46,114l-5.83,14.902l15.5,6.058l5.45-15.726L1938.46,114z M1894.96,97l-5.95,14.856l0.061,0.023l0.06,0.023
		L1894.96,97z M1884.46,93.5l4.21-15.436v0L1884.46,93.5z M1848.46,98.5l7.149,14.311l0.24-0.117l0.23-0.125L1848.46,98.5z
		 M1826.96,115l-11.87-10.735l-0.14,0.159l-0.14,0.163L1826.96,115z M1812.46,139l-14.82-6.037l-0.1,0.239l-0.09,0.241L1812.46,139z
		 M1807.46,167l16,0.101v-0.051V167H1807.46z M1790.46,326c0,12.523,2.16,24.35,6.76,35.234l29.47-12.469
		c-2.729-6.447-4.229-13.955-4.229-22.766H1790.46z M1797.22,361.234c4.38,10.357,10.32,19.472,17.921,27.08l22.629-22.629
		c-4.39-4.392-8.129-9.943-11.08-16.92L1797.22,361.234z M1815.141,388.314c7.399,7.394,15.989,13.302,25.649,17.73l13.33-29.09
		c-6.33-2.904-11.74-6.663-16.351-11.27L1815.141,388.314z M1841.3,406.27c9.761,4.066,19.97,6.313,30.54,6.719l1.23-31.977
		c-6.76-0.26-13.221-1.681-19.461-4.281L1841.3,406.27z M1872.46,413c3.33,0,6.66-0.209,9.979-0.624l-3.97-31.752
		c-2.01,0.251-4.01,0.376-6.01,0.376V413z M1883.93,412.119c4.061-0.902,8.53-2.362,13.271-4.186l-11.49-29.867
		c-3.92,1.511-6.78,2.383-8.72,2.814L1883.93,412.119z M1896.84,408.068c4.811-1.719,10.76-3.929,17.811-6.616l-11.391-29.904
		c-6.939,2.646-12.66,4.769-17.18,6.384L1896.84,408.068z M1915.02,401.309c7.271-2.978,16.73-6.793,28.381-11.453l-11.891-29.711
		c-11.68,4.674-21.22,8.524-28.609,11.547L1915.02,401.309z M1922.53,380.761l11,28.5l29.85-11.521l-11-28.5L1922.53,380.761z
		 M1943.061,388.436l-40.5,14.5l10.789,30.129l40.5-14.5L1943.061,388.436z M1902.63,402.912c-4.87,1.718-10.29,3.195-16.31,4.398
		l6.27,31.379c7.32-1.464,14.23-3.319,20.69-5.602L1902.63,402.912z M1886.32,407.311c-6.061,1.211-10.61,1.689-13.86,1.689v32
		c6.08,0,12.86-0.855,20.13-2.311L1886.32,407.311z M1872.46,409c-10.8,0-20.86-1.839-30.29-5.445l-11.43,29.891
		c13.24,5.061,27.18,7.555,41.72,7.555V409z M1842.71,403.771c-9.2-3.901-17.39-9.314-24.66-16.305l-22.18,23.066
		c10.06,9.676,21.53,17.263,34.34,22.695L1842.71,403.771z M1818.27,387.686c-6.789-6.785-12.35-15.047-16.609-24.988l-29.41,12.605
		c5.74,13.393,13.51,25.13,23.39,35.012L1818.27,387.686z M1801.73,362.846c-4.08-9.772-6.271-21.137-6.271-34.346h-32
		c0,16.791,2.8,32.427,8.729,46.654L1801.73,362.846z M1795.46,328.5v-5h-32v5H1795.46z M1795.46,323.5V167h-32v156.5H1795.46z
		 M1795.46,167c0-12.19,2.021-23.205,5.91-33.201l-29.83-11.598c-5.44,14.004-8.08,28.989-8.08,44.799H1795.46z M1801.28,134.011
		c4.609-11.354,9.189-18.677,13.29-23.007l-23.23-22.008c-7.9,8.337-14.31,19.681-19.71,32.993L1801.28,134.011z M1814.85,110.703
		c5.851-6.495,10.03-10.604,12.74-12.82l-20.26-24.767c-4.63,3.784-10.11,9.341-16.27,16.18L1814.85,110.703z M1828.22,97.339
		c2.9-2.632,5.83-4.787,8.8-6.519L1820.9,63.18c-5.041,2.935-9.771,6.447-14.211,10.481L1828.22,97.339z M1836.109,91.311
		c3.041-1.516,7.791-3.742,14.41-6.72l-13.129-29.182c-6.711,3.022-11.951,5.463-15.591,7.28L1836.109,91.311z M1851.109,84.311
		c3.36-1.681,10.24-3.311,22.351-3.311V49c-13.899,0-26.69,1.704-36.66,6.689L1851.109,84.311z M1873.46,81
		c2.899,0,7.181,0.539,13.12,2.022l7.76-31.045c-7.4-1.85-14.449-2.978-20.88-2.978V81z M1886.58,83.022
		c6.43,1.608,12.12,3.192,17.1,4.749l9.551-30.543c-5.69-1.777-11.99-3.525-18.891-5.251L1886.58,83.022z M1902.55,87.369l39,15.5
		l11.82-29.738l-39-15.5L1902.55,87.369z M1932.34,82.766l-9,26l30.24,10.468l9-26L1932.34,82.766z M1944.28,99.098l-43.5-17
		l-11.65,29.804l43.5,17L1944.28,99.098z M1900.9,82.145c-3.931-1.573-8.01-2.93-12.23-4.081l-8.42,30.872
		c3.109,0.849,6.03,1.825,8.76,2.92L1900.9,82.145z M1888.67,78.063c-4.85-1.323-9.77-2.063-14.71-2.063v32
		c1.729,0,3.8,0.259,6.29,0.936L1888.67,78.063z M1873.96,76c-11.69,0-22.81,2.845-33.12,8.431l15.24,28.138
		c5.68-3.081,11.57-4.569,17.88-4.569V76z M1841.3,84.189c-9.87,4.938-18.62,11.685-26.21,20.076l23.73,21.47
		c5.08-5.609,10.67-9.862,16.789-12.924L1841.3,84.189z M1814.811,104.587c-7.181,8.375-12.891,17.87-17.171,28.376l29.63,12.074
		c3.061-7.494,7.011-13.999,11.84-19.624L1814.811,104.587z M1797.45,133.443c-3.99,10.792-5.99,22.008-5.99,33.557h32
		c0-7.784,1.33-15.235,4-22.443L1797.45,133.443z M1791.46,166.899l-1,159l32,0.203l1-159L1791.46,166.899z M1992.22,417.5h-16v16
		h16V417.5z M1992.22,373.5v-16h-16v16H1992.22z M2026.72,373.5h16v-16h-16V373.5z M2026.72,417.5v16h16v-16H2026.72z
		 M2008.22,417.5v-44h-32v44H2008.22z M1992.22,389.5h34.5v-32h-34.5V389.5z M2010.72,373.5v44h32v-44H2010.72z M2026.72,401.5
		h-34.5v32h34.5V401.5z M2214.05,292.5v16h19.82l-4.181-19.375L2214.05,292.5z M2173.05,102.5l15.64-3.375l-2.72-12.625h-12.92
		V102.5z M2166.55,102.5v-16h-12.88l-2.75,12.586L2166.55,102.5z M2125.05,292.5l-15.63-3.414l-4.24,19.414h19.87V292.5z
		 M2117.05,322v-16h-12.79l-2.82,12.479L2117.05,322z M2095.05,419.5v16h12.79l2.82-12.479L2095.05,419.5z M2068.05,419.5
		l-15.6-3.565l-4.47,19.565h20.069V419.5z M2148.05,69.5v-16h-12.75l-2.85,12.435L2148.05,69.5z M2190.55,69.5l15.601-3.565
		l-2.84-12.435h-12.761V69.5z M2270.55,419.5v16h20.07l-4.47-19.565L2270.55,419.5z M2244.05,419.5l-15.59,3.598l2.86,12.402h12.729
		V419.5z M2221.55,322l15.59-3.598L2234.28,306h-12.73V322z M2229.689,289.125l-41-190l-31.279,6.75l41,190L2229.689,289.125z
		 M2173.05,86.5h-6.5v32h6.5V86.5z M2150.92,99.086l-41.5,190l31.26,6.828l41.5-190L2150.92,99.086z M2125.05,308.5h89v-32h-89
		V308.5z M2101.439,318.479l-22,97.5l31.221,7.043l22-97.5L2101.439,318.479z M2095.05,403.5h-27v32h27V403.5z M2083.65,423.065
		l80-350l-31.2-7.131l-80,350L2083.65,423.065z M2148.05,85.5h42.5v-32h-42.5V85.5z M2174.95,73.065l80,350l31.2-7.131l-80-350
		L2174.95,73.065z M2270.55,403.5h-26.5v32h26.5V403.5z M2259.64,415.902l-22.5-97.5l-31.18,7.195l22.5,97.5L2259.64,415.902z
		 M2221.55,306h-104.5v32h104.5V306z"/>
</g>
<g>
	<path fill="#070707" d="M81.922,146h-13.5V43.625h13.5V146z M185.352,146h-13.571l-51.539-78.891V146h-13.57V43.625h13.57
		l51.68,79.242V43.625h13.43V146z M243.219,128.07l29.25-84.445h14.765L249.266,146h-11.954L199.414,43.625h14.695L243.219,128.07z
		 M358.883,98.68h-44.367v36.281h51.539V146h-65.039V43.625h64.335v11.109h-50.836v32.906h44.367V98.68z M420.406,104.586h-24.047
		V146h-13.57V43.625h33.891c11.531,0,20.391,2.625,26.578,7.875c6.234,5.25,9.352,12.891,9.352,22.922
		c0,6.375-1.734,11.93-5.203,16.664c-3.422,4.734-8.203,8.273-14.344,10.617l24.047,43.453V146h-14.484L420.406,104.586z
		 M396.359,93.547h20.742c6.703,0,12.023-1.734,15.961-5.203c3.984-3.469,5.977-8.109,5.977-13.922
		c0-6.328-1.898-11.18-5.695-14.555c-3.75-3.375-9.188-5.086-16.313-5.133h-20.672V93.547z M501.758,100.367
		c-11.578-3.328-20.016-7.406-25.313-12.234c-5.25-4.875-7.875-10.875-7.875-18c0-8.063,3.211-14.719,9.633-19.969
		c6.469-5.297,14.859-7.945,25.172-7.945c7.031,0,13.289,1.359,18.773,4.078c5.531,2.719,9.797,6.469,12.797,11.25
		c3.047,4.781,4.57,10.008,4.57,15.68h-13.57c0-6.188-1.969-11.039-5.906-14.555c-3.938-3.563-9.492-5.344-16.664-5.344
		c-6.656,0-11.859,1.477-15.609,4.43c-3.703,2.906-5.555,6.961-5.555,12.164c0,4.172,1.758,7.711,5.273,10.617
		c3.563,2.859,9.586,5.484,18.07,7.875c8.531,2.391,15.188,5.039,19.969,7.945c4.828,2.859,8.391,6.21,10.688,10.055
		c2.344,3.844,3.516,8.367,3.516,13.57c0,8.297-3.234,14.954-9.703,19.969c-6.469,4.969-15.117,7.453-25.945,7.453
		c-7.031,0-13.594-1.336-19.688-4.008c-6.094-2.718-10.805-6.421-14.133-11.109c-3.281-4.687-4.922-10.008-4.922-15.961h13.57
		c0,6.188,2.273,11.086,6.82,14.695c4.594,3.563,10.711,5.344,18.352,5.344c7.125,0,12.586-1.453,16.383-4.359
		c3.797-2.906,5.695-6.867,5.695-11.883s-1.758-8.883-5.273-11.602C517.367,105.758,510.992,103.039,501.758,100.367z M571.578,146
		h-13.5V43.625h13.5V146z M675.078,98.117c0,10.031-1.688,18.797-5.063,26.297c-3.375,7.453-8.156,13.148-14.344,17.086
		s-13.406,5.906-21.656,5.906c-8.063,0-15.211-1.968-21.445-5.906c-6.234-3.984-11.086-9.633-14.555-16.945
		c-3.422-7.36-5.18-15.867-5.273-25.524v-7.383c0-9.844,1.711-18.539,5.133-26.086s8.25-13.313,14.484-17.297
		c6.281-4.031,13.453-6.047,21.516-6.047c8.203,0,15.422,1.992,21.656,5.977c6.281,3.938,11.109,9.68,14.484,17.227
		c3.375,7.5,5.063,16.242,5.063,26.227V98.117z M661.648,91.508c0-12.141-2.438-21.445-7.313-27.914
		c-4.875-6.516-11.695-9.773-20.461-9.773c-8.531,0-15.258,3.258-20.18,9.773c-4.875,6.469-7.383,15.469-7.523,27v7.523
		c0,11.766,2.461,21.024,7.383,27.774c4.969,6.703,11.789,10.054,20.461,10.054c8.719,0,15.469-3.164,20.25-9.492
		c4.781-6.375,7.242-15.492,7.383-27.352V91.508z M774.008,146h-13.57l-51.539-78.891V146h-13.57V43.625h13.57l51.68,79.242V43.625
		h13.43V146z M855.852,98.68h-44.367v36.281h51.539V146h-65.039V43.625h64.336v11.109h-50.836v32.906h44.367V98.68z
		 M909.992,100.367c-11.578-3.328-20.016-7.406-25.313-12.234c-5.25-4.875-7.875-10.875-7.875-18c0-8.063,3.211-14.719,9.633-19.969
		c6.469-5.297,14.859-7.945,25.172-7.945c7.031,0,13.289,1.359,18.773,4.078c5.531,2.719,9.797,6.469,12.797,11.25
		c3.047,4.781,4.57,10.008,4.57,15.68h-13.57c0-6.188-1.969-11.039-5.906-14.555c-3.938-3.563-9.492-5.344-16.664-5.344
		c-6.656,0-11.859,1.477-15.609,4.43c-3.703,2.906-5.555,6.961-5.555,12.164c0,4.172,1.758,7.711,5.273,10.617
		c3.563,2.859,9.586,5.484,18.07,7.875c8.531,2.391,15.188,5.039,19.969,7.945c4.828,2.859,8.391,6.21,10.688,10.055
		c2.344,3.844,3.516,8.367,3.516,13.57c0,8.297-3.234,14.954-9.703,19.969c-6.469,4.969-15.117,7.453-25.945,7.453
		c-7.031,0-13.594-1.336-19.688-4.008c-6.094-2.718-10.805-6.421-14.133-11.109c-3.281-4.687-4.922-10.008-4.922-15.961h13.57
		c0,6.188,2.273,11.086,6.82,14.695c4.594,3.563,10.711,5.344,18.352,5.344c7.125,0,12.586-1.453,16.383-4.359
		c3.797-2.906,5.695-6.867,5.695-11.883s-1.758-8.883-5.273-11.602C925.602,105.758,919.227,103.039,909.992,100.367z"/>
	<path fill="#070707" d="M81.922,146v5h5v-5H81.922z M68.422,146h-5v5h5V146z M68.422,43.625v-5h-5v5H68.422z M81.922,43.625h5v-5
		h-5V43.625z M81.922,141h-13.5v10h13.5V141z M73.422,146V43.625h-10V146H73.422z M68.422,48.625h13.5v-10h-13.5V48.625z
		 M76.922,43.625V146h10V43.625H76.922z M185.352,146v5h5v-5H185.352z M171.781,146l-4.186,2.735l1.48,2.265h2.706V146z
		 M120.242,67.109l4.186-2.735l-9.186-14.061v16.795H120.242z M120.242,146v5h5v-5H120.242z M106.672,146h-5v5h5V146z
		 M106.672,43.625v-5h-5v5H106.672z M120.242,43.625l4.188-2.731l-1.479-2.269h-2.709V43.625z M171.922,122.867l-4.188,2.732
		l9.188,14.088v-16.82H171.922z M171.922,43.625v-5h-5v5H171.922z M185.352,43.625h5v-5h-5V43.625z M185.352,141h-13.571v10h13.571
		V141z M175.967,143.265l-51.539-78.891l-8.372,5.469l51.539,78.891L175.967,143.265z M115.242,67.109V146h10V67.109H115.242z
		 M120.242,141h-13.57v10h13.57V141z M111.672,146V43.625h-10V146H111.672z M106.672,48.625h13.57v-10h-13.57V48.625z
		 M116.054,46.356l51.68,79.243l8.376-5.463l-51.68-79.242L116.054,46.356z M176.922,122.867V43.625h-10v79.242H176.922z
		 M171.922,48.625h13.43v-10h-13.43V48.625z M180.352,43.625V146h10V43.625H180.352z M243.219,128.07l-4.727,1.63l4.715,13.68
		l4.736-13.673L243.219,128.07z M272.469,43.625v-5h-3.56l-1.165,3.363L272.469,43.625z M287.234,43.625l4.688,1.739l2.5-6.739
		h-7.188V43.625z M249.266,146v5h3.478l1.21-3.261L249.266,146z M237.312,146l-4.689,1.736l1.209,3.264h3.48V146z M199.414,43.625
		v-5h-7.183l2.494,6.736L199.414,43.625z M214.109,43.625l4.727-1.629l-1.161-3.371h-3.566V43.625z M247.943,129.707l29.25-84.445
		l-9.449-3.273l-29.25,84.446L247.943,129.707z M272.469,48.625h14.765v-10h-14.765V48.625z M282.546,41.886l-37.968,102.375
		l9.376,3.479l37.968-102.375L282.546,41.886z M249.266,141h-11.954v10h11.954V141z M242.002,144.264L204.103,41.889l-9.378,3.472
		l37.898,102.375L242.002,144.264z M199.414,48.625h14.695v-10h-14.695V48.625z M209.382,45.254l29.11,84.446l9.454-3.259
		l-29.11-84.445L209.382,45.254z M358.883,98.68v5h5v-5H358.883z M314.516,98.68v-5h-5v5H314.516z M314.516,134.961h-5v5h5V134.961z
		 M366.055,134.961h5v-5h-5V134.961z M366.055,146v5h5v-5H366.055z M301.016,146h-5v5h5V146z M301.016,43.625v-5h-5v5H301.016z
		 M365.352,43.625h5v-5h-5V43.625z M365.352,54.734v5h5v-5H365.352z M314.516,54.734v-5h-5v5H314.516z M314.516,87.641h-5v5h5
		V87.641z M358.883,87.641h5v-5h-5V87.641z M358.883,93.68h-44.367v10h44.367V93.68z M309.516,98.68v36.281h10V98.68H309.516z
		 M314.516,139.961h51.539v-10h-51.539V139.961z M361.055,134.961V146h10v-11.039H361.055z M366.055,141h-65.039v10h65.039V141z
		 M306.016,146V43.625h-10V146H306.016z M301.016,48.625h64.335v-10h-64.335V48.625z M360.352,43.625v11.109h10V43.625H360.352z
		 M365.352,49.734h-50.836v10h50.836V49.734z M309.516,54.734v32.906h10V54.734H309.516z M314.516,92.641h44.367v-10h-44.367V92.641
		z M353.883,87.641V98.68h10V87.641H353.883z M420.406,104.586l4.406-2.364l-1.414-2.636h-2.992V104.586z M396.359,104.586v-5h-5v5
		H396.359z M396.359,146v5h5v-5H396.359z M382.789,146h-5v5h5V146z M382.789,43.625v-5h-5v5H382.789z M443.258,51.5l-3.234,3.813
		l0.007,0.006l0.007,0.006L443.258,51.5z M447.406,91.086l-4.033-2.955l-0.01,0.013l-0.01,0.013L447.406,91.086z M433.063,101.703
		l-1.782-4.671l-5.381,2.054l2.788,5.039L433.063,101.703z M457.109,145.156h5v-1.291l-0.625-1.13L457.109,145.156z M457.109,146v5
		h5v-5H457.109z M442.625,146l-4.406,2.364l1.414,2.636h2.992V146z M396.359,93.547h-5v5h5V93.547z M433.063,88.344l-3.283-3.771
		l-0.012,0.009l-0.011,0.01L433.063,88.344z M433.344,59.867l-3.345,3.716l0.011,0.01l0.012,0.01L433.344,59.867z M417.031,54.734
		l0.033-5h-0.017h-0.017V54.734z M396.359,54.734v-5h-5v5H396.359z M420.406,99.586h-24.047v10h24.047V99.586z M391.359,104.586V146
		h10v-41.414H391.359z M396.359,141h-13.57v10h13.57V141z M387.789,146V43.625h-10V146H387.789z M382.789,48.625h33.891v-10h-33.891
		V48.625z M416.68,48.625c10.838,0,18.374,2.472,23.344,6.688l6.47-7.625c-7.406-6.284-17.589-9.063-29.813-9.063V48.625z
		 M440.037,55.325c4.85,4.084,7.572,10.169,7.572,19.097h10c0-11.134-3.513-20.331-11.131-26.747L440.037,55.325z M447.609,74.422
		c0,5.409-1.45,9.907-4.236,13.709l8.067,5.91c4.15-5.667,6.169-12.278,6.169-19.619H447.609z M443.354,88.157
		c-2.781,3.849-6.726,6.833-12.073,8.875l3.564,9.342c6.934-2.646,12.552-6.739,16.614-12.359L443.354,88.157z M428.688,104.124
		l24.048,43.453l8.749-4.842l-24.047-43.453L428.688,104.124z M452.109,145.156V146h10v-0.844H452.109z M457.109,141h-14.484v10
		h14.484V141z M447.031,143.636l-22.219-41.414L416,106.95l22.219,41.414L447.031,143.636z M396.359,98.547h20.742v-10h-20.742
		V98.547z M417.102,98.547c7.572,0,14.185-1.975,19.267-6.451l-6.611-7.504c-2.793,2.461-6.822,3.955-12.655,3.955V98.547z
		 M436.346,92.115c5.192-4.52,7.693-10.597,7.693-17.693h-10c0,4.529-1.483,7.733-4.26,10.151L436.346,92.115z M444.039,74.422
		c0-7.378-2.256-13.743-7.373-18.292l-6.645,7.474c2.477,2.201,4.018,5.54,4.018,10.818H444.039z M436.689,56.151
		c-4.975-4.477-11.778-6.365-19.625-6.417l-0.066,10c6.403,0.042,10.475,1.576,13.001,3.849L436.689,56.151z M417.031,49.734
		h-20.672v10h20.672V49.734z M391.359,54.734v38.813h10V54.734H391.359z M501.758,100.367l1.391-4.803l-0.01-0.003L501.758,100.367z
		 M476.445,88.133l-3.402,3.664l0.017,0.016l0.018,0.016L476.445,88.133z M478.203,50.164l3.165,3.871l0.003-0.002L478.203,50.164z
		 M522.148,46.297l-2.221,4.479l0.007,0.004l0.009,0.004L522.148,46.297z M534.945,57.547l-4.235,2.657l0.009,0.015l0.01,0.015
		L534.945,57.547z M539.516,73.227v5h5v-5H539.516z M525.945,73.227h-5v5h5V73.227z M520.039,58.672l-3.355,3.708l0.014,0.011
		l0.012,0.011L520.039,58.672z M487.766,57.758l3.088,3.933l0.006-0.005L487.766,57.758z M487.484,80.539l-3.186,3.854l0.027,0.023
		l0.029,0.022L487.484,80.539z M505.555,88.414l-1.355,4.813l0.007,0.002L505.555,88.414z M525.523,96.359l-2.598,4.272l0.025,0.015
		l0.024,0.015L525.523,96.359z M536.211,106.414l-4.292,2.565l0.011,0.019l0.013,0.019L536.211,106.414z M530.023,139.953
		l3.046,3.965l0.009-0.007l0.009-0.006L530.023,139.953z M484.391,143.398l-2.037,4.567l0.015,0.006l0.015,0.007L484.391,143.398z
		 M470.258,132.289l-4.096,2.867l0.009,0.014l0.01,0.014L470.258,132.289z M465.336,116.328v-5h-5v5H465.336z M478.906,116.328h5v-5
		h-5V116.328z M485.727,131.023l-3.108,3.917l0.021,0.017l0.022,0.018L485.727,131.023z M520.883,108.523l-3.092,3.93l0.017,0.013
		l0.017,0.013L520.883,108.523z M503.139,95.562c-11.278-3.242-18.858-7.052-23.324-11.124l-6.737,7.391
		c6.127,5.584,15.422,9.93,27.299,13.345L503.139,95.562z M479.848,84.469c-4.237-3.935-6.277-8.61-6.277-14.336h-10
		c0,8.524,3.211,15.849,9.473,21.664L479.848,84.469z M473.57,70.133c0-6.513,2.499-11.766,7.798-16.098l-6.33-7.742
		c-7.544,6.168-11.468,14.228-11.468,23.84H473.57z M481.371,54.033c5.381-4.407,12.568-6.814,22.004-6.814v-10
		c-11.189,0-20.784,2.89-28.34,9.077L481.371,54.033z M503.375,47.219c6.376,0,11.855,1.229,16.553,3.558l4.441-8.959
		c-6.271-3.108-13.307-4.598-20.994-4.598V47.219z M519.943,50.784c4.776,2.348,8.305,5.497,10.767,9.42l8.471-5.314
		c-3.539-5.64-8.542-9.991-14.827-13.08L519.943,50.784z M530.729,60.234c2.535,3.978,3.787,8.272,3.787,12.993h10
		c0-6.624-1.795-12.782-5.354-18.367L530.729,60.234z M539.516,68.227h-13.57v10h13.57V68.227z M530.945,73.227
		c0-7.342-2.391-13.654-7.576-18.284l-6.66,7.459c2.689,2.401,4.236,5.792,4.236,10.825H530.945z M523.394,54.964
		c-5.138-4.649-12.048-6.636-20.019-6.636v10c6.373,0,10.573,1.575,13.309,4.051L523.394,54.964z M503.375,48.328
		c-7.343,0-13.781,1.626-18.703,5.501l6.188,7.856c2.578-2.031,6.547-3.358,12.516-3.358V48.328z M484.679,53.825
		c-5.049,3.962-7.468,9.543-7.468,16.097h10c0-3.853,1.284-6.381,3.643-8.231L484.679,53.825z M477.211,69.922
		c0,5.814,2.545,10.715,7.088,14.471l6.371-7.707c-2.488-2.058-3.459-4.234-3.459-6.764H477.211z M484.355,84.438
		c4.373,3.511,11.201,6.353,19.844,8.788l2.712-9.625c-8.327-2.346-13.546-4.754-16.297-6.962L484.355,84.438z M504.206,93.229
		c8.315,2.331,14.487,4.83,18.72,7.403l5.195-8.545c-5.329-3.239-12.471-6.037-21.217-8.487L504.206,93.229z M522.976,100.662
		c4.289,2.54,7.169,5.348,8.943,8.317l8.584-5.13c-2.819-4.718-7.065-8.613-12.432-11.792L522.976,100.662z M531.942,109.017
		c1.795,2.944,2.784,6.537,2.784,10.967h10c0-5.976-1.354-11.43-4.246-16.173L531.942,109.017z M534.727,119.984
		c0,6.776-2.539,11.964-7.767,16.018l6.127,7.903c7.71-5.979,11.64-14.104,11.64-23.921H534.727z M526.979,135.988
		c-5.349,4.106-12.813,6.418-22.9,6.418v10c11.57,0,21.4-2.657,28.991-8.488L526.979,135.988z M504.078,142.406
		c-6.38,0-12.254-1.208-17.68-3.587l-4.016,9.159c6.762,2.965,14.014,4.428,21.695,4.428V142.406z M486.428,138.832
		c-5.41-2.413-9.361-5.59-12.093-9.438l-8.154,5.79c3.925,5.527,9.396,9.757,16.173,12.781L486.428,138.832z M474.354,129.422
		c-2.668-3.812-4.018-8.123-4.018-13.094h-10c0,6.935,1.931,13.265,5.826,18.828L474.354,129.422z M465.336,121.328h13.57v-10
		h-13.57V121.328z M473.906,116.328c0,7.597,2.882,13.984,8.712,18.612l6.217-7.833c-3.264-2.591-4.929-6.001-4.929-10.779H473.906z
		 M482.662,134.975c5.712,4.429,13.016,6.392,21.416,6.392v-10c-6.881,0-11.812-1.599-15.287-4.295L482.662,134.975z
		 M504.078,141.367c7.709,0,14.417-1.558,19.422-5.389l-6.078-7.941c-2.589,1.982-6.803,3.33-13.344,3.33V141.367z M523.5,135.978
		c5.102-3.905,7.656-9.37,7.656-15.853h-10c0,3.548-1.242,6.005-3.734,7.912L523.5,135.978z M531.156,120.125
		c0-6.337-2.307-11.761-7.214-15.557l-6.118,7.911c2.122,1.641,3.332,3.951,3.332,7.646H531.156z M523.974,104.594
		c-4.331-3.407-11.521-6.337-20.825-9.029l-2.78,9.605c9.163,2.651,14.723,5.159,17.423,7.283L523.974,104.594z M571.578,146v5h5v-5
		H571.578z M558.078,146h-5v5h5V146z M558.078,43.625v-5h-5v5H558.078z M571.578,43.625h5v-5h-5V43.625z M571.578,141h-13.5v10h13.5
		V141z M563.078,146V43.625h-10V146H563.078z M558.078,48.625h13.5v-10h-13.5V48.625z M566.578,43.625V146h10V43.625H566.578z
		 M670.016,124.414l4.555,2.063l0.005-0.011L670.016,124.414z M612.57,141.5l-2.692,4.213l0.011,0.007l0.012,0.007L612.57,141.5z
		 M598.016,124.555l-4.533,2.108l0.008,0.017l0.008,0.018L598.016,124.555z M592.742,99.031h-5v0.024v0.024L592.742,99.031z
		 M612.359,48.266l2.692,4.213l0.008-0.005L612.359,48.266z M655.531,48.195l-2.692,4.213l0.019,0.012l0.019,0.011L655.531,48.195z
		 M670.016,65.422l-4.564,2.041l0.005,0.011L670.016,65.422z M654.336,63.594l-4.004,2.995l0.006,0.007l0.005,0.007L654.336,63.594z
		 M613.695,63.594l-3.989-3.014l-0.004,0.004L613.695,63.594z M606.172,90.594l-5-0.061v0.031v0.03H606.172z M613.555,125.891
		l-4.04,2.945l0.012,0.016l0.012,0.016L613.555,125.891z M654.266,126.453l3.989,3.014l0.005-0.007l0.006-0.007L654.266,126.453z
		 M661.648,99.102l5,0.059v-0.029v-0.03H661.648z M670.078,98.117c0,9.476-1.594,17.516-4.622,24.245l9.119,4.104
		c3.722-8.271,5.503-17.762,5.503-28.349H670.078z M665.461,122.352c-3.021,6.673-7.199,11.573-12.474,14.93l5.369,8.436
		c7.1-4.518,12.486-11.009,16.214-19.241L665.461,122.352z M652.987,137.282c-5.287,3.365-11.55,5.124-18.972,5.124v10
		c9.078,0,17.253-2.178,24.341-6.688L652.987,137.282z M634.016,142.406c-7.209,0-13.414-1.747-18.775-5.133l-5.34,8.454
		c7.107,4.489,15.199,6.679,24.115,6.679V142.406z M615.263,137.287c-5.37-3.432-9.624-8.328-12.729-14.875l-9.035,4.286
		c3.832,8.077,9.281,14.479,16.38,19.015L615.263,137.287z M602.549,122.447c-3.07-6.604-4.719-14.387-4.807-23.465l-10,0.098
		c0.1,10.235,1.966,19.467,5.74,27.583L602.549,122.447z M597.742,99.031v-7.383h-10v7.383H597.742z M597.742,91.648
		c0-9.264,1.608-17.233,4.687-24.021l-9.107-4.13c-3.767,8.306-5.579,17.727-5.579,28.151H597.742z M602.429,67.627
		c3.072-6.775,7.3-11.747,12.623-15.149l-5.385-8.426c-7.146,4.566-12.574,11.126-16.346,19.445L602.429,67.627z M615.06,52.474
		c5.411-3.473,11.631-5.255,18.815-5.255v-10c-8.94,0-17.064,2.249-24.216,6.839L615.06,52.474z M633.875,47.219
		c7.356,0,13.619,1.774,18.964,5.189l5.385-8.426c-7.124-4.553-15.299-6.764-24.349-6.764V47.219z M652.876,52.432
		c5.346,3.352,9.556,8.281,12.575,15.031l9.129-4.082c-3.731-8.344-9.177-14.898-16.393-19.422L652.876,52.432z M665.456,67.474
		c3.029,6.732,4.622,14.75,4.622,24.175h10c0-10.543-1.782-20.011-5.503-28.278L665.456,67.474z M670.078,91.648v6.469h10v-6.469
		H670.078z M666.648,91.508c0-12.711-2.537-23.25-8.319-30.923l-7.986,6.019c3.968,5.265,6.306,13.334,6.306,24.905H666.648z
		 M658.339,60.599c-5.899-7.887-14.264-11.778-24.464-11.778v10c7.331,0,12.608,2.624,16.457,7.769L658.339,60.599z M633.875,48.82
		c-10.017,0-18.254,3.929-24.169,11.76l7.979,6.027c3.929-5.201,9.145-7.787,16.19-7.787V48.82z M609.702,60.584
		c-5.736,7.612-8.381,17.789-8.53,29.948l10,0.122c0.132-10.903,2.503-18.726,6.516-24.052L609.702,60.584z M601.172,90.594v7.523
		h10v-7.523H601.172z M601.172,98.117c0,12.405,2.588,22.828,8.343,30.719l8.08-5.891c-4.09-5.609-6.423-13.701-6.423-24.828
		H601.172z M609.538,128.868c5.954,8.033,14.295,12.077,24.478,12.077v-10c-7.162,0-12.462-2.659-16.444-8.032L609.538,128.868z
		 M634.016,140.945c10.107,0,18.41-3.762,24.239-11.478l-7.979-6.028c-3.733,4.941-8.931,7.506-16.261,7.506V140.945z
		 M658.266,129.453c5.661-7.548,8.235-17.864,8.383-30.292l-9.999-0.118c-0.135,11.291-2.482,19.208-6.384,24.411L658.266,129.453z
		 M666.648,99.102v-7.594h-10v7.594H666.648z M774.008,146v5h5v-5H774.008z M760.438,146l-4.186,2.735l1.48,2.265h2.705V146z
		 M708.898,67.109l4.186-2.735l-9.186-14.061v16.795H708.898z M708.898,146v5h5v-5H708.898z M695.328,146h-5v5h5V146z
		 M695.328,43.625v-5h-5v5H695.328z M708.898,43.625l4.188-2.731l-1.479-2.269h-2.709V43.625z M760.578,122.867l-4.188,2.732
		l9.188,14.088v-16.82H760.578z M760.578,43.625v-5h-5v5H760.578z M774.008,43.625h5v-5h-5V43.625z M774.008,141h-13.57v10h13.57
		V141z M764.623,143.265l-51.539-78.891l-8.371,5.469l51.539,78.891L764.623,143.265z M703.898,67.109V146h10V67.109H703.898z
		 M708.898,141h-13.57v10h13.57V141z M700.328,146V43.625h-10V146H700.328z M695.328,48.625h13.57v-10h-13.57V48.625z
		 M704.71,46.356l51.68,79.243l8.376-5.463l-51.68-79.242L704.71,46.356z M765.578,122.867V43.625h-10v79.242H765.578z
		 M760.578,48.625h13.43v-10h-13.43V48.625z M769.008,43.625V146h10V43.625H769.008z M855.852,98.68v5h5v-5H855.852z M811.484,98.68
		v-5h-5v5H811.484z M811.484,134.961h-5v5h5V134.961z M863.023,134.961h5v-5h-5V134.961z M863.023,146v5h5v-5H863.023z M797.984,146
		h-5v5h5V146z M797.984,43.625v-5h-5v5H797.984z M862.32,43.625h5v-5h-5V43.625z M862.32,54.734v5h5v-5H862.32z M811.484,54.734v-5
		h-5v5H811.484z M811.484,87.641h-5v5h5V87.641z M855.852,87.641h5v-5h-5V87.641z M855.852,93.68h-44.367v10h44.367V93.68z
		 M806.484,98.68v36.281h10V98.68H806.484z M811.484,139.961h51.539v-10h-51.539V139.961z M858.023,134.961V146h10v-11.039H858.023z
		 M863.023,141h-65.039v10h65.039V141z M802.984,146V43.625h-10V146H802.984z M797.984,48.625h64.336v-10h-64.336V48.625z
		 M857.32,43.625v11.109h10V43.625H857.32z M862.32,49.734h-50.836v10h50.836V49.734z M806.484,54.734v32.906h10V54.734H806.484z
		 M811.484,92.641h44.367v-10h-44.367V92.641z M850.852,87.641V98.68h10V87.641H850.852z M909.992,100.367l1.39-4.803l-0.008-0.003
		L909.992,100.367z M884.68,88.133l-3.402,3.664l0.017,0.016l0.017,0.016L884.68,88.133z M886.438,50.164l3.164,3.871l0.004-0.002
		L886.438,50.164z M930.383,46.297l-2.221,4.479l0.008,0.004l0.007,0.004L930.383,46.297z M943.18,57.547l-4.235,2.657l0.01,0.015
		l0.009,0.015L943.18,57.547z M947.75,73.227v5h5v-5H947.75z M934.18,73.227h-5v5h5V73.227z M928.273,58.672l-3.354,3.708
		l0.012,0.011l0.013,0.011L928.273,58.672z M896,57.758l3.087,3.933l0.006-0.005L896,57.758z M895.719,80.539l-3.186,3.854
		l0.027,0.023l0.028,0.022L895.719,80.539z M913.789,88.414l-1.356,4.813l0.007,0.002L913.789,88.414z M933.758,96.359l-2.597,4.272
		l0.024,0.015l0.024,0.015L933.758,96.359z M944.445,106.414l-4.292,2.565l0.012,0.019l0.011,0.019L944.445,106.414z
		 M938.258,139.953l3.046,3.965l0.009-0.007l0.01-0.006L938.258,139.953z M892.625,143.398l-2.037,4.567l0.014,0.006l0.016,0.007
		L892.625,143.398z M878.492,132.289l-4.096,2.867l0.01,0.014l0.009,0.014L878.492,132.289z M873.57,116.328v-5h-5v5H873.57z
		 M887.141,116.328h5v-5h-5V116.328z M893.961,131.023l-3.109,3.917l0.022,0.017l0.022,0.018L893.961,131.023z M929.117,108.523
		l-3.091,3.93l0.016,0.013l0.016,0.013L929.117,108.523z M911.374,95.562c-11.279-3.242-18.859-7.052-23.326-11.124l-6.737,7.391
		c6.127,5.584,15.422,9.93,27.301,13.345L911.374,95.562z M888.082,84.469c-4.238-3.935-6.277-8.61-6.277-14.336h-10
		c0,8.524,3.21,15.849,9.473,21.664L888.082,84.469z M881.805,70.133c0-6.513,2.498-11.766,7.797-16.098l-6.328-7.742
		c-7.545,6.168-11.469,14.228-11.469,23.84H881.805z M889.605,54.033c5.382-4.407,12.568-6.814,22.004-6.814v-10
		c-11.189,0-20.783,2.89-28.34,9.077L889.605,54.033z M911.609,47.219c6.376,0,11.854,1.229,16.553,3.558l4.441-8.959
		c-6.271-3.108-13.308-4.598-20.994-4.598V47.219z M928.177,50.784c4.777,2.348,8.306,5.497,10.768,9.42l8.471-5.314
		c-3.538-5.64-8.541-9.991-14.827-13.08L928.177,50.784z M938.963,60.234c2.535,3.978,3.787,8.272,3.787,12.993h10
		c0-6.624-1.795-12.782-5.354-18.367L938.963,60.234z M947.75,68.227h-13.57v10h13.57V68.227z M939.18,73.227
		c0-7.342-2.391-13.654-7.576-18.284l-6.66,7.459c2.689,2.401,4.236,5.792,4.236,10.825H939.18z M931.628,54.964
		c-5.138-4.649-12.047-6.636-20.019-6.636v10c6.373,0,10.572,1.575,13.31,4.051L931.628,54.964z M911.609,48.328
		c-7.344,0-13.781,1.626-18.702,5.501l6.186,7.856c2.579-2.031,6.547-3.358,12.517-3.358V48.328z M892.913,53.825
		c-5.049,3.962-7.468,9.543-7.468,16.097h10c0-3.853,1.285-6.381,3.642-8.231L892.913,53.825z M885.445,69.922
		c0,5.814,2.545,10.715,7.088,14.471l6.371-7.707c-2.488-2.058-3.459-4.234-3.459-6.764H885.445z M892.589,84.438
		c4.374,3.511,11.202,6.353,19.844,8.788l2.712-9.625c-8.326-2.346-13.546-4.754-16.297-6.962L892.589,84.438z M912.439,93.229
		c8.316,2.331,14.487,4.83,18.722,7.403l5.194-8.545c-5.329-3.239-12.471-6.037-21.218-8.487L912.439,93.229z M931.21,100.662
		c4.289,2.54,7.169,5.348,8.943,8.317l8.584-5.13c-2.819-4.718-7.064-8.613-12.432-11.792L931.21,100.662z M940.176,109.017
		c1.795,2.944,2.785,6.537,2.785,10.967h10c0-5.976-1.354-11.43-4.247-16.173L940.176,109.017z M942.961,119.984
		c0,6.776-2.539,11.964-7.767,16.018l6.128,7.903c7.709-5.979,11.639-14.104,11.639-23.921H942.961z M935.212,135.988
		c-5.347,4.106-12.813,6.418-22.899,6.418v10c11.569,0,21.4-2.657,28.991-8.488L935.212,135.988z M912.313,142.406
		c-6.381,0-12.255-1.208-17.68-3.587l-4.016,9.159c6.763,2.965,14.013,4.428,21.695,4.428V142.406z M894.662,138.832
		c-5.409-2.413-9.361-5.59-12.093-9.438l-8.154,5.79c3.925,5.527,9.396,9.757,16.173,12.781L894.662,138.832z M882.588,129.422
		c-2.668-3.812-4.018-8.123-4.018-13.094h-10c0,6.935,1.932,13.265,5.826,18.828L882.588,129.422z M873.57,121.328h13.57v-10h-13.57
		V121.328z M882.141,116.328c0,7.597,2.883,13.984,8.711,18.612l6.219-7.833c-3.266-2.591-4.93-6.001-4.93-10.779H882.141z
		 M890.896,134.975c5.711,4.429,13.016,6.392,21.416,6.392v-10c-6.881,0-11.812-1.599-15.287-4.295L890.896,134.975z
		 M912.313,141.367c7.709,0,14.418-1.558,19.422-5.389l-6.078-7.941c-2.589,1.982-6.803,3.33-13.344,3.33V141.367z M931.734,135.978
		c5.102-3.905,7.656-9.37,7.656-15.853h-10c0,3.548-1.242,6.005-3.734,7.912L931.734,135.978z M939.391,120.125
		c0-6.337-2.306-11.761-7.215-15.557l-6.118,7.911c2.123,1.641,3.333,3.951,3.333,7.646H939.391z M932.209,104.594
		c-4.331-3.407-11.521-6.337-20.827-9.029l-2.78,9.605c9.164,2.651,14.725,5.159,17.425,7.283L932.209,104.594z"/>
</g>
<g>
	<path fill="#070707" d="M63.036,420V215.25h57.797c17.812,0,33.562,3.938,47.25,11.812c13.687,7.876,24.234,19.079,31.64,33.61
		c7.5,14.531,11.297,31.219,11.391,50.063v13.078c0,19.313-3.75,36.234-11.25,50.766c-7.406,14.531-18.047,25.688-31.922,33.469
		c-13.781,7.781-29.859,11.766-48.234,11.953H63.036z M90.036,237.469v160.453h28.406c20.812,0,36.984-6.469,48.516-19.406
		c11.625-12.938,17.437-31.359,17.437-55.266v-11.953c0-23.25-5.484-41.297-16.453-54.141c-10.875-12.938-26.344-19.5-46.406-19.688
		H90.036z M410.976,324.234c0,20.063-3.375,37.594-10.125,52.594c-6.75,14.906-16.313,26.297-28.688,34.172
		s-26.813,11.813-43.313,11.813c-16.125,0-30.422-3.938-42.891-11.813c-12.469-7.969-22.172-19.266-29.109-33.891
		c-6.844-14.719-10.36-31.734-10.547-51.047v-14.766c0-19.688,3.422-37.078,10.265-52.172c6.844-15.094,16.5-26.625,28.969-34.594
		c12.563-8.063,26.906-12.093,43.031-12.093c16.406,0,30.844,3.984,43.313,11.953c12.563,7.875,22.219,19.359,28.969,34.453
		c6.75,15,10.125,32.484,10.125,52.453V324.234z M384.116,311.016c0-24.281-4.875-42.891-14.625-55.828
		c-9.75-13.031-23.391-19.547-40.922-19.547c-17.063,0-30.516,6.516-40.359,19.547c-9.75,12.938-14.766,30.938-15.047,54v15.047
		c0,23.531,4.922,42.047,14.766,55.547c9.938,13.406,23.578,20.109,40.922,20.109c17.438,0,30.938-6.328,40.5-18.984
		c9.563-12.75,14.484-30.984,14.766-54.703V311.016z M610.275,420h-27.142L480.056,262.219V420h-27.14V215.25h27.14l103.36,158.484
		V215.25h26.859V420z M581.166,164.906c0,10.125-2.907,18.328-8.719,24.61c-5.719,6.281-12.892,9.422-21.517,9.422
		c-3.843,0-7.172-0.469-9.983-1.407c-2.813-0.938-6.517-2.859-11.109-5.765c-4.5-2.907-7.782-4.641-9.844-5.204
		c-1.969-0.656-4.266-0.984-6.891-0.984c-3.845,0-7.125,1.5-9.845,4.5c-2.718,2.906-4.078,6.656-4.078,11.25l-17.437-0.984
		c0-10.032,2.812-18.328,8.437-24.891c5.72-6.562,12.938-9.844,21.657-9.844c3.281,0,6.234,0.469,8.859,1.407
		c2.625,0.937,6.187,2.765,10.687,5.484s7.922,4.5,10.267,5.344c2.438,0.844,5.108,1.265,8.016,1.265
		c4.031,0,7.359-1.593,9.984-4.781c2.719-3.187,4.078-6.89,4.078-11.109L581.166,164.906z M775.262,366.563h-85.78L670.215,420
		h-27.844l78.188-204.75h23.625L822.512,420h-27.703L775.262,366.563z M697.637,344.344h69.609l-34.875-95.766L697.637,344.344z
		 M1081.75,420h-27.14L951.533,262.219V420h-27.141V215.25h27.141l103.356,158.484V215.25h26.86V420z M1246.88,325.359h-88.74
		v72.563h103.08V420h-130.08V215.25h128.681v22.219H1158.14v65.813h88.74V325.359z M1371.37,337.172h-48.101V420h-27.14V215.25
		h67.78c23.06,0,40.779,5.25,53.16,15.75c12.47,10.5,18.699,25.781,18.699,45.844c0,12.75-3.47,23.859-10.399,33.328
		c-6.851,9.469-16.41,16.547-28.69,21.234l48.09,86.906V420h-28.97L1371.37,337.172z M1323.27,315.094h41.49
		c13.4,0,24.04-3.469,31.92-10.406c7.971-6.938,11.95-16.219,11.95-27.844c0-12.656-3.8-22.359-11.39-29.109
		c-7.5-6.75-18.37-10.172-32.62-10.266h-41.351V315.094z M1504.15,420h-27V215.25h27V420z M1670.68,366.563H1584.9L1565.64,420
		h-27.85l78.19-204.75h23.619L1717.93,420h-27.699L1670.68,366.563z M1593.061,344.344h69.609l-34.88-95.766L1593.061,344.344z"/>
	<path fill="#070707" d="M63.036,420h-12v12h12V420z M63.036,215.25v-12h-12v12H63.036z M199.723,260.672l-10.691,5.449l0.014,0.027
		l0.014,0.027L199.723,260.672z M211.114,310.734h12v-0.029v-0.03L211.114,310.734z M199.864,374.578l-10.664-5.504l-0.014,0.027
		l-0.014,0.027L199.864,374.578z M167.942,408.047l-5.87-10.467l-0.015,0.009l-0.015,0.008L167.942,408.047z M119.708,420v12h0.061
		l0.061-0.001L119.708,420z M90.036,237.469v-12h-12v12H90.036z M90.036,397.922h-12v12h12V397.922z M166.958,378.516l-8.926-8.021
		l-0.017,0.019l-0.016,0.018L166.958,378.516z M167.942,257.156l-9.186,7.722l0.03,0.036l0.031,0.035L167.942,257.156z
		 M121.536,237.469l0.112-12h-0.056h-0.056V237.469z M75.036,420V215.25h-24V420H75.036z M63.036,227.25h57.797v-24H63.036V227.25z
		 M120.833,227.25c15.986,0,29.622,3.515,41.265,10.214l11.969-20.803c-15.732-9.051-33.596-13.411-53.234-13.411V227.25z
		 M162.098,237.464c11.603,6.675,20.547,16.126,26.934,28.657l21.383-10.898c-8.426-16.531-20.576-29.487-36.348-38.562
		L162.098,237.464z M189.06,266.176c6.507,12.607,9.968,27.379,10.054,44.618l24-0.119c-0.102-20.448-4.235-39.052-12.727-55.507
		L189.06,266.176z M199.114,310.734v13.078h24v-13.078H199.114z M199.114,323.813c0,17.744-3.438,32.715-9.914,45.262l21.327,11.008
		c8.524-16.516,12.587-35.389,12.587-56.27H199.114z M189.172,369.129c-6.358,12.477-15.347,21.86-27.1,28.451l11.74,20.933
		c15.997-8.971,28.289-21.898,36.743-38.485L189.172,369.129z M162.042,397.597c-11.752,6.637-25.779,10.233-42.457,10.404
		l0.245,23.998c20.072-0.204,38.201-4.575,54.012-13.503L162.042,397.597z M119.708,408H63.036v24h56.672V408z M78.036,237.469
		v160.453h24V237.469H78.036z M90.036,409.922h28.406v-24H90.036V409.922z M118.442,409.922c23.485,0,43.21-7.419,57.474-23.422
		l-17.917-15.969c-8.799,9.871-21.417,15.391-39.557,15.391V409.922z M175.883,386.536c14.241-15.849,20.512-37.534,20.512-63.286
		h-24c0,22.061-5.354,37.219-14.363,47.245L175.883,386.536z M196.395,323.25v-11.953h-24v11.953H196.395z M196.395,311.297
		c0-25.033-5.909-46.221-19.328-61.934l-18.25,15.586c8.518,9.975,13.578,24.881,13.578,46.348H196.395z M177.128,249.436
		c-13.557-16.128-32.636-23.752-55.48-23.967l-0.225,23.999c17.281,0.162,29.14,5.662,37.333,15.41L177.128,249.436z
		 M121.536,225.469h-31.5v24h31.5V225.469z M400.851,376.828l10.932,4.949l0.006-0.012l0.006-0.013L400.851,376.828z M285.96,411
		l-6.462,10.111l0.027,0.018l0.027,0.018L285.96,411z M256.851,377.109l-10.882,5.06l0.021,0.042l0.02,0.041L256.851,377.109z
		 M246.304,326.063h-12v0.059v0.058L246.304,326.063z M285.538,224.531L292,234.643l0.01-0.007l0.01-0.006L285.538,224.531z
		 M371.882,224.391l-6.462,10.111l0.044,0.028l0.044,0.028L371.882,224.391z M400.851,258.844l-10.954,4.899l0.006,0.012
		l0.006,0.013L400.851,258.844z M369.491,255.188l-9.608,7.188l0.012,0.017l0.014,0.018L369.491,255.188z M288.21,255.188
		l-9.575-7.233l-0.008,0.011L288.21,255.188z M273.163,309.188l-11.999-0.146l-0.001,0.073v0.073H273.163z M287.929,379.781
		l-9.696,7.07l0.027,0.037l0.028,0.038L287.929,379.781z M369.351,380.906l9.574,7.234l0.013-0.018l0.014-0.018L369.351,380.906z
		 M384.116,326.203l11.999,0.142l0.001-0.071v-0.07H384.116z M398.976,324.234c0,18.729-3.15,34.519-9.067,47.67l21.886,9.849
		c7.582-16.851,11.182-36.123,11.182-57.519H398.976z M389.919,371.878c-5.903,13.036-14.013,22.517-24.198,28.998l12.885,20.248
		c14.565-9.269,25.579-22.57,33.177-39.347L389.919,371.878z M365.721,400.876c-10.216,6.501-22.358,9.937-36.87,9.937v24
		c18.488,0,35.222-4.439,49.755-13.688L365.721,400.876z M328.851,410.813c-14.076,0-26.109-3.406-36.482-9.959l-12.816,20.293
		c14.564,9.197,31.125,13.666,49.299,13.666V410.813z M292.422,400.889c-10.395-6.644-18.663-16.134-24.729-28.923l-21.684,10.286
		c7.808,16.462,18.946,29.565,33.489,38.859L292.422,400.889z M267.732,372.05c-6-12.903-9.255-28.18-9.429-46.104l-23.999,0.232
		c0.201,20.701,3.978,39.456,11.665,55.99L267.732,372.05z M258.304,326.063v-14.766h-24v14.766H258.304z M258.304,311.297
		c0-18.295,3.177-33.943,9.194-47.217l-21.858-9.91c-7.669,16.915-11.336,36.047-11.336,57.127H258.304z M267.498,264.08
		c6.004-13.241,14.219-22.865,24.502-29.437l-12.924-20.223c-14.654,9.365-25.752,22.803-33.436,39.75L267.498,264.08z
		 M292.02,234.63c10.473-6.721,22.53-10.192,36.549-10.192v-24c-18.23,0-34.86,4.591-49.512,13.994L292.02,234.63z M328.569,224.438
		c14.374,0,26.518,3.46,36.851,10.064l12.924-20.223c-14.604-9.334-31.336-13.841-49.774-13.841V224.438z M365.508,234.558
		c10.319,6.469,18.493,16.002,24.389,29.185l21.908-9.798c-7.604-17.006-18.742-30.44-33.549-39.722L365.508,234.558z
		 M389.908,263.768c5.92,13.157,9.067,28.902,9.067,47.529h24c0-21.311-3.603-40.535-11.182-57.378L389.908,263.768z
		 M398.976,311.297v12.938h24v-12.938H398.976z M396.116,311.016c0-25.65-5.114-47.224-17.041-63.051l-19.167,14.445
		c7.572,10.048,12.208,25.693,12.208,48.605H396.116z M379.1,247.999c-12.212-16.321-29.556-24.358-50.53-24.358v24
		c14.089,0,24.024,4.994,31.313,14.735L379.1,247.999z M328.569,223.641c-20.628,0-37.706,8.126-49.935,24.313l19.15,14.467
		c7.46-9.876,17.287-14.78,30.784-14.78V223.641z M278.627,247.965c-11.818,15.682-17.163,36.506-17.463,61.076l23.998,0.293
		c0.263-21.555,4.949-36.73,12.631-46.924L278.627,247.965z M261.163,309.188v15.047h24v-15.047H261.163z M261.163,324.234
		c0,25.065,5.228,46.377,17.07,62.617l19.392-14.141c-7.846-10.76-12.462-26.479-12.462-48.477H261.163z M278.288,386.927
		c12.304,16.599,29.594,24.964,50.563,24.964v-24c-13.719,0-23.709-5.041-31.282-15.256L278.288,386.927z M328.851,411.891
		c20.77,0,37.996-7.765,50.074-23.75l-19.148-14.469c-7.048,9.327-16.819,14.219-30.926,14.219V411.891z M378.951,388.105
		c11.674-15.564,16.867-36.677,17.164-61.761l-23.998-0.284c-0.266,22.354-4.915,37.711-12.366,47.646L378.951,388.105z
		 M396.116,326.203v-15.188h-24v15.188H396.116z M610.275,420v12h12v-12H610.275z M583.134,420l-10.046,6.563L576.64,432h6.494V420z
		 M480.056,262.219l10.046-6.563l-22.046-33.746v40.309H480.056z M480.056,420v12h12v-12H480.056z M452.916,420h-12v12h12V420z
		 M452.916,215.25v-12h-12v12H452.916z M480.056,215.25l10.053-6.555l-3.552-5.445h-6.501V215.25z M583.416,373.734l-10.052,6.556
		l22.052,33.812v-40.367H583.416z M583.416,215.25v-12h-12v12H583.416z M610.275,215.25h12v-12h-12V215.25z M581.166,164.906h12
		v-10.896l-10.844-1.049L581.166,164.906z M572.447,189.516l-8.809-8.151l-0.032,0.036l-0.032,0.036L572.447,189.516z
		 M529.838,191.766l-6.511,10.08l0.047,0.031l0.048,0.03L529.838,191.766z M519.994,186.562l-3.795,11.385l0.315,0.104l0.321,0.088
		L519.994,186.562z M503.259,190.078l8.765,8.198l0.064-0.069l0.063-0.071L503.259,190.078z M499.181,201.328l-0.676,11.981
		l12.676,0.716v-12.697H499.181z M481.744,200.344h-12v11.341l11.323,0.64L481.744,200.344z M490.181,175.453l-9.047-7.884
		l-0.032,0.037l-0.031,0.038L490.181,175.453z M541.65,177.844l-4.065,11.29l0.07,0.025l0.069,0.025L541.65,177.844z
		 M559.65,174.328l-9.131-7.787l-0.066,0.079l-0.066,0.08L559.65,174.328z M563.729,163.219l1.155-11.944l-13.155-1.274v13.218
		H563.729z M610.275,408h-27.142v24h27.142V408z M593.181,413.438L490.102,255.656l-20.092,13.126l103.078,157.78L593.181,413.438z
		 M468.056,262.219V420h24V262.219H468.056z M480.056,408h-27.14v24h27.14V408z M464.916,420V215.25h-24V420H464.916z
		 M452.916,227.25h27.14v-24h-27.14V227.25z M470.005,221.805L573.364,380.29l20.103-13.111L490.108,208.695L470.005,221.805z
		 M595.416,373.734V215.25h-24v158.484H595.416z M583.416,227.25h26.859v-24h-26.859V227.25z M598.275,215.25V420h24V215.25H598.275
		z M569.166,164.906c0,7.691-2.134,12.793-5.527,16.459l17.615,16.301c8.232-8.896,11.912-20.201,11.912-32.76H569.166z
		 M563.574,181.437c-3.406,3.74-7.336,5.501-12.644,5.501v24c11.944,0,22.357-4.521,30.39-13.344L563.574,181.437z M550.931,186.938
		c-2.915,0-4.901-0.362-6.188-0.791l-7.59,22.768c4.338,1.446,9.007,2.023,13.778,2.023V186.938z M544.742,186.147
		c-1.425-0.475-4.156-1.781-8.489-4.522l-12.831,20.282c4.854,3.071,9.53,5.608,13.73,7.008L544.742,186.147z M536.348,181.685
		c-4.438-2.866-9.132-5.591-13.196-6.7l-6.315,23.155c-0.217-0.06,0.217,0.045,1.558,0.754c1.23,0.651,2.86,1.613,4.934,2.952
		L536.348,181.685z M523.789,175.178c-3.468-1.155-7.097-1.6-10.686-1.6v24c1.66,0,2.625,0.212,3.096,0.369L523.789,175.178z
		 M513.104,173.578c-7.431,0-13.88,3.083-18.735,8.442l17.783,16.116c0.207-0.228,0.36-0.358,0.452-0.427
		c0.09-0.067,0.137-0.088,0.146-0.092c0.007-0.003,0.017-0.008,0.049-0.015c0.034-0.007,0.129-0.024,0.306-0.024V173.578z
		 M494.496,181.88c-5.119,5.472-7.315,12.314-7.315,19.448h24c0-2.053,0.523-2.711,0.843-3.052L494.496,181.88z M499.858,189.347
		l-17.438-0.984l-1.353,23.962l17.438,0.984L499.858,189.347z M493.744,200.344c0-7.653,2.081-13.037,5.548-17.081l-18.222-15.619
		c-7.783,9.08-11.326,20.29-11.326,32.7H493.744z M499.229,183.337c3.436-3.943,7.353-5.728,12.609-5.728v-24
		c-12.182,0-22.702,4.778-30.704,13.96L499.229,183.337z M511.838,177.609c2.144,0,3.7,0.306,4.823,0.708l8.072-22.602
		c-4.127-1.474-8.478-2.106-12.896-2.106V177.609z M516.661,178.317c1.473,0.526,4.215,1.854,8.518,4.454l12.411-20.542
		c-4.697-2.838-9.081-5.166-12.856-6.514L516.661,178.317z M525.179,182.771c4.604,2.781,8.877,5.093,12.406,6.363l8.13-22.581
		c-1.158-0.417-3.729-1.668-8.125-4.324L525.179,182.771z M537.725,189.184c3.85,1.332,7.866,1.925,11.941,1.925v-24
		c-1.738,0-3.065-0.25-4.091-0.605L537.725,189.184z M549.666,191.109c7.716,0,14.407-3.275,19.247-9.152L550.387,166.7
		c-0.176,0.213-0.298,0.321-0.352,0.364c-0.051,0.041-0.061,0.04-0.033,0.027c0.028-0.013,0.041-0.014,0.015-0.009
		c-0.027,0.007-0.138,0.027-0.351,0.027V191.109z M568.78,182.115c4.585-5.375,6.948-11.845,6.948-18.896h-24
		c0,1.386-0.356,2.323-1.209,3.322L568.78,182.115z M562.572,175.163l17.438,1.687l2.313-23.888l-17.438-1.687L562.572,175.163z
		 M775.262,366.563l11.271-4.123l-2.882-7.877h-8.389V366.563z M689.481,366.563v-12h-8.431l-2.858,7.931L689.481,366.563z
		 M670.215,420v12h8.43l2.859-7.93L670.215,420z M642.371,420l-11.21-4.281L624.944,432h17.427V420z M720.559,215.25v-12h-8.263
		l-2.948,7.719L720.559,215.25z M744.184,215.25l11.208-4.288l-2.95-7.712h-8.258V215.25z M822.512,420v12h17.439l-6.231-16.288
		L822.512,420z M794.809,420l-11.27,4.122l2.882,7.878h8.388V420z M697.637,344.344l-11.28-4.092l-5.837,16.092h17.117V344.344z
		 M767.246,344.344v12h17.141l-5.865-16.105L767.246,344.344z M732.371,248.578l11.275-4.105l-11.299-31.025l-11.258,31.039
		L732.371,248.578z M775.262,354.563h-85.78v24h85.78V354.563z M678.192,362.493l-19.267,53.437l22.578,8.141l19.265-53.438
		L678.192,362.493z M670.215,408h-27.844v24h27.844V408z M653.582,424.281l78.187-204.75l-22.421-8.563l-78.187,204.75
		L653.582,424.281z M720.559,227.25h23.625v-24h-23.625V227.25z M732.976,219.538l78.328,204.75l22.416-8.576l-78.328-204.75
		L732.976,219.538z M822.512,408h-27.703v24h27.703V408z M806.078,415.878l-19.546-53.438l-22.54,8.246l19.547,53.437
		L806.078,415.878z M697.637,356.344h69.609v-24h-69.609V356.344z M778.521,340.238l-34.875-95.766l-22.551,8.211l34.875,95.767
		L778.521,340.238z M721.09,244.486l-34.733,95.766l22.562,8.184l34.734-95.766L721.09,244.486z M1081.75,420v12h12v-12H1081.75z
		 M1054.61,420l-10.05,6.563l3.56,5.438h6.49V420z M951.533,262.219l10.046-6.563l-22.046-33.746v40.309H951.533z M951.533,420v12
		h12v-12H951.533z M924.393,420h-12v12h12V420z M924.393,215.25v-12h-12v12H924.393z M951.533,215.25l10.051-6.555l-3.551-5.445
		h-6.5V215.25z M1054.89,373.734l-10.05,6.556l22.05,33.812v-40.367H1054.89z M1054.89,215.25v-12h-12v12H1054.89z M1081.75,215.25
		h12v-12h-12V215.25z M1081.75,408h-27.14v24h27.14V408z M1064.66,413.438L961.579,255.656l-20.093,13.126l103.074,157.78
		L1064.66,413.438z M939.533,262.219V420h24V262.219H939.533z M951.533,408h-27.141v24h27.141V408z M936.393,420V215.25h-24V420
		H936.393z M924.393,227.25h27.141v-24h-27.141V227.25z M941.48,221.805L1044.84,380.29l20.1-13.111L961.584,208.695L941.48,221.805
		z M1066.89,373.734V215.25h-24v158.484H1066.89z M1054.89,227.25h26.86v-24h-26.86V227.25z M1069.75,215.25V420h24V215.25H1069.75z
		 M1246.88,325.359v12h12v-12H1246.88z M1158.14,325.359v-12h-12v12H1158.14z M1158.14,397.922h-12v12h12V397.922z M1261.22,397.922
		h12v-12h-12V397.922z M1261.22,420v12h12v-12H1261.22z M1131.14,420h-12v12h12V420z M1131.14,215.25v-12h-12v12H1131.14z
		 M1259.82,215.25h12v-12h-12V215.25z M1259.82,237.469v12h12v-12H1259.82z M1158.14,237.469v-12h-12v12H1158.14z M1158.14,303.281
		h-12v12h12V303.281z M1246.88,303.281h12v-12h-12V303.281z M1246.88,313.359h-88.74v24h88.74V313.359z M1146.14,325.359v72.563h24
		v-72.563H1146.14z M1158.14,409.922h103.08v-24h-103.08V409.922z M1249.22,397.922V420h24v-22.078H1249.22z M1261.22,408h-130.08
		v24h130.08V408z M1143.14,420V215.25h-24V420H1143.14z M1131.14,227.25h128.681v-24H1131.14V227.25z M1247.82,215.25v22.219h24
		V215.25H1247.82z M1259.82,225.469H1158.14v24h101.681V225.469z M1146.14,237.469v65.813h24v-65.813H1146.14z M1158.14,315.281
		h88.74v-24h-88.74V315.281z M1234.88,303.281v22.078h24v-22.078H1234.88z M1371.37,337.172l10.569-5.673l-3.39-6.327h-7.18V337.172
		z M1323.27,337.172v-12h-12v12H1323.27z M1323.27,420v12h12v-12H1323.27z M1296.13,420h-12v12h12V420z M1296.13,215.25v-12h-12v12
		H1296.13z M1417.07,231l-7.771,9.15l0.021,0.015l0.02,0.015L1417.07,231z M1425.37,310.172l-9.681-7.092l-0.029,0.031l-0.021,0.031
		L1425.37,310.172z M1396.68,331.406l-4.279-11.211l-12.91,4.929l6.689,12.093L1396.68,331.406z M1444.77,418.313h12v-3.099
		l-1.5-2.712L1444.77,418.313z M1444.77,420v12h12v-12H1444.77z M1415.8,420l-10.569,5.673l3.39,6.327h7.18V420z M1323.27,315.094
		h-12v12h12V315.094z M1396.68,304.688l-7.88-9.051l-0.03,0.023l-0.02,0.023L1396.68,304.688z M1397.24,247.734l-8.03,8.92
		l0.03,0.024l0.029,0.024L1397.24,247.734z M1364.62,237.469l0.069-12h-0.029h-0.04V237.469z M1323.27,237.469v-12h-12v12H1323.27z
		 M1371.37,325.172h-48.101v24h48.101V325.172z M1311.27,337.172V420h24v-82.828H1311.27z M1323.27,408h-27.14v24h27.14V408z
		 M1308.13,420V215.25h-24V420H1308.13z M1296.13,227.25h67.78v-24h-67.78V227.25z M1363.91,227.25c21.4,0,35.939,4.882,45.39,12.9
		l15.53-18.3c-15.3-12.982-36.19-18.6-60.92-18.6V227.25z M1409.34,240.18c9.141,7.701,14.43,19.249,14.43,36.664h24
		c0-22.71-7.18-41.725-22.97-55.023L1409.34,240.18z M1423.77,276.844c0,10.432-2.789,19.004-8.08,26.236l19.36,14.184
		c8.57-11.705,12.72-25.352,12.72-40.42H1423.77z M1415.64,303.143c-5.31,7.344-12.859,13.09-23.239,17.053l8.56,22.422
		c14.18-5.413,25.75-13.821,34.13-25.416L1415.64,303.143z M1386.18,337.217l48.09,86.906l21-11.621l-48.09-86.906L1386.18,337.217z
		 M1432.77,418.313V420h24v-1.688H1432.77z M1444.77,408h-28.97v24h28.97V408z M1426.38,414.327l-44.44-82.828l-21.149,11.346
		l44.44,82.828L1426.38,414.327z M1323.27,327.094h41.49v-24h-41.49V327.094z M1364.76,327.094c15.49,0,29.23-4.046,39.851-13.402
		l-15.86-18.008c-5.13,4.519-12.67,7.41-23.99,7.41V327.094z M1404.561,313.738c10.869-9.461,16.069-22.19,16.069-36.895h-24
		c0,8.545-2.76,14.379-7.83,18.793L1404.561,313.738z M1420.63,276.844c0-15.176-4.649-28.511-15.42-38.078l-15.94,17.938
		c4.42,3.933,7.36,10.004,7.36,20.141H1420.63z M1405.27,238.814c-10.439-9.394-24.59-13.24-40.58-13.346l-0.149,23.999
		c12.51,0.083,20.11,3.08,24.67,7.187L1405.27,238.814z M1364.62,225.469h-41.351v24h41.351V225.469z M1311.27,237.469v77.625h24
		v-77.625H1311.27z M1504.15,420v12h12v-12H1504.15z M1477.15,420h-12v12h12V420z M1477.15,215.25v-12h-12v12H1477.15z
		 M1504.15,215.25h12v-12h-12V215.25z M1504.15,408h-27v24h27V408z M1489.15,420V215.25h-24V420H1489.15z M1477.15,227.25h27v-24
		h-27V227.25z M1492.15,215.25V420h24V215.25H1492.15z M1670.68,366.563l11.271-4.123l-2.88-7.877h-8.391V366.563z M1584.9,366.563
		v-12h-8.431l-2.859,7.931L1584.9,366.563z M1565.64,420v12h8.431l2.85-7.93L1565.64,420z M1537.79,420l-11.21-4.281L1520.36,432
		h17.43V420z M1615.98,215.25v-12h-8.261l-2.95,7.719L1615.98,215.25z M1639.6,215.25l11.211-4.288l-2.95-7.712h-8.261V215.25z
		 M1717.93,420v12h17.44l-6.23-16.288L1717.93,420z M1690.23,420l-11.271,4.122l2.88,7.878h8.391V420z M1593.061,344.344
		l-11.28-4.092l-5.841,16.092h17.121V344.344z M1662.67,344.344v12h17.141l-5.871-16.105L1662.67,344.344z M1627.79,248.578
		l11.28-4.105l-11.301-31.025l-11.26,31.039L1627.79,248.578z M1670.68,354.563H1584.9v24h85.779V354.563z M1573.61,362.493
		l-19.261,53.437l22.57,8.141l19.27-53.438L1573.61,362.493z M1565.64,408h-27.85v24h27.85V408z M1549,424.281l78.189-204.75
		l-22.42-8.563l-78.189,204.75L1549,424.281z M1615.98,227.25h23.619v-24h-23.619V227.25z M1628.4,219.538l78.33,204.75
		l22.409-8.576l-78.329-204.75L1628.4,219.538z M1717.93,408h-27.699v24h27.699V408z M1701.5,415.878l-19.55-53.438l-22.54,8.246
		l19.55,53.437L1701.5,415.878z M1593.061,356.344h69.609v-24h-69.609V356.344z M1673.939,340.238l-34.869-95.766l-22.551,8.211
		l34.87,95.767L1673.939,340.238z M1616.51,244.486l-34.729,95.766l22.56,8.184l34.73-95.766L1616.51,244.486z"/>
</g>
</svg>
