<svg width="2308" height="470" viewBox="0 0 2308 470" fill="none" xmlns="http://www.w3.org/2000/svg">
<g filter="url(#filter0_d)">
<path d="M1806.46 326C1806.46 336.667 1808.29 346.333 1811.96 355C1815.62 363.667 1820.46 371 1826.46 377C1832.46 383 1839.46 387.833 1847.46 391.5C1855.46 394.833 1863.79 396.667 1872.46 397C1875.12 397 1877.79 396.833 1880.46 396.5C1883.46 395.833 1887.12 394.667 1891.46 393C1896.12 391.333 1901.96 389.167 1908.96 386.5C1916.29 383.5 1925.79 379.667 1937.46 375L1948.46 403.5L1907.96 418C1902.29 420 1896.12 421.667 1889.46 423C1882.79 424.333 1877.12 425 1872.46 425C1859.79 425 1847.79 422.833 1836.46 418.5C1825.46 413.833 1815.62 407.333 1806.96 399C1798.62 390.667 1791.96 380.667 1786.96 369C1781.96 357 1779.46 343.5 1779.46 328.5V323.5V167C1779.46 153 1781.79 140 1786.46 128C1791.46 115.667 1796.96 106.333 1802.96 100C1808.96 93.3333 1813.79 88.5 1817.46 85.5C1821.12 82.1667 1824.96 79.3333 1828.96 77C1832.29 75.3333 1837.29 73 1843.96 70C1850.62 66.6666 1860.46 65 1873.46 65C1878.12 65 1883.79 65.8333 1890.46 67.5C1897.12 69.1666 1903.12 70.8333 1908.46 72.5L1947.46 88L1938.46 114L1894.96 97C1891.62 95.6667 1888.12 94.5 1884.46 93.5C1880.79 92.5 1877.29 92 1873.96 92C1864.96 92 1856.46 94.1667 1848.46 98.5C1840.46 102.5 1833.29 108 1826.96 115C1820.96 122 1816.12 130 1812.46 139C1809.12 148 1807.46 157.333 1807.46 167L1806.46 326ZM1992.22 417.5V373.5H2026.72V417.5H1992.22ZM2214.05 292.5L2173.05 102.5H2166.55L2125.05 292.5H2214.05ZM2117.05 322L2095.05 419.5H2068.05L2148.05 69.5H2190.55L2270.55 419.5H2244.05L2221.55 322H2117.05Z" fill="white"/>
<path d="M1806.46 326L1790.46 325.899L1790.46 325.95V326H1806.46ZM1811.96 355L1797.22 361.234L1811.96 355ZM1826.46 377L1837.77 365.686H1837.77L1826.46 377ZM1847.46 391.5L1840.79 406.045L1841.04 406.162L1841.3 406.269L1847.46 391.5ZM1872.46 397L1871.84 412.988L1872.15 413H1872.46V397ZM1880.46 396.5L1882.44 412.376L1883.19 412.283L1883.93 412.119L1880.46 396.5ZM1891.46 393L1886.08 377.932L1885.89 377.997L1885.71 378.066L1891.46 393ZM1908.96 386.5L1914.65 401.452L1914.83 401.382L1915.02 401.309L1908.96 386.5ZM1937.46 375L1952.38 369.239L1946.55 354.129L1931.51 360.144L1937.46 375ZM1948.46 403.5L1953.85 418.564L1969.29 413.036L1963.38 397.739L1948.46 403.5ZM1907.96 418L1913.28 433.088L1913.32 433.076L1913.35 433.064L1907.96 418ZM1889.46 423L1886.32 407.311L1889.46 423ZM1836.46 418.5L1830.21 433.229L1830.47 433.342L1830.74 433.445L1836.46 418.5ZM1806.96 399L1795.64 410.314L1795.75 410.425L1795.87 410.533L1806.96 399ZM1786.96 369L1772.19 375.154L1772.22 375.228L1772.25 375.303L1786.96 369ZM1786.46 128L1771.63 121.989L1771.59 122.094L1771.54 122.201L1786.46 128ZM1802.96 100L1814.57 111.004L1814.71 110.855L1814.85 110.703L1802.96 100ZM1817.46 85.5L1827.59 97.8833L1827.91 97.6194L1828.22 97.339L1817.46 85.5ZM1828.96 77L1821.8 62.6891L1821.34 62.9197L1820.9 63.1795L1828.96 77ZM1843.96 70L1850.52 84.5907L1850.82 84.4568L1851.11 84.3108L1843.96 70ZM1890.46 67.5L1886.58 83.0223V83.0223L1890.46 67.5ZM1908.46 72.5L1914.37 57.6312L1913.81 57.4083L1913.23 57.2283L1908.46 72.5ZM1947.46 88L1962.58 93.2338L1967.58 78.7802L1953.37 73.1312L1947.46 88ZM1938.46 114L1932.63 128.902L1948.13 134.96L1953.58 119.234L1938.46 114ZM1894.96 97L1889.01 111.856L1889.07 111.879L1889.13 111.902L1894.96 97ZM1884.46 93.5L1888.67 78.0638L1888.67 78.0637L1884.46 93.5ZM1848.46 98.5L1855.61 112.811L1855.85 112.694L1856.08 112.569L1848.46 98.5ZM1826.96 115L1815.09 104.265L1814.95 104.424L1814.81 104.587L1826.96 115ZM1812.46 139L1797.64 132.963L1797.54 133.202L1797.45 133.443L1812.46 139ZM1807.46 167L1823.46 167.101L1823.46 167.05V167H1807.46ZM1790.46 326C1790.46 338.524 1792.62 350.349 1797.22 361.234L1826.69 348.766C1823.96 342.318 1822.46 334.81 1822.46 326H1790.46ZM1797.22 361.234C1801.6 371.592 1807.54 380.706 1815.14 388.314L1837.77 365.686C1833.38 361.294 1829.64 355.742 1826.69 348.766L1797.22 361.234ZM1815.14 388.314C1822.54 395.708 1831.13 401.616 1840.79 406.045L1854.12 376.955C1847.79 374.051 1842.38 370.292 1837.77 365.686L1815.14 388.314ZM1841.3 406.269C1851.06 410.336 1861.27 412.582 1871.84 412.988L1873.07 381.012C1866.31 380.752 1859.85 379.331 1853.61 376.731L1841.3 406.269ZM1872.46 413C1875.79 413 1879.12 412.791 1882.44 412.376L1878.47 380.624C1876.46 380.875 1874.46 381 1872.46 381V413ZM1883.93 412.119C1887.99 411.217 1892.46 409.757 1897.2 407.934L1885.71 378.066C1881.79 379.577 1878.93 380.449 1876.99 380.881L1883.93 412.119ZM1896.84 408.068C1901.65 406.35 1907.6 404.14 1914.65 401.452L1903.26 371.548C1896.32 374.193 1890.6 376.317 1886.08 377.932L1896.84 408.068ZM1915.02 401.309C1922.29 398.331 1931.75 394.515 1943.4 389.856L1931.51 360.144C1919.83 364.819 1910.29 368.669 1902.9 371.691L1915.02 401.309ZM1922.53 380.761L1933.53 409.261L1963.38 397.739L1952.38 369.239L1922.53 380.761ZM1943.06 388.436L1902.56 402.936L1913.35 433.064L1953.85 418.564L1943.06 388.436ZM1902.63 402.912C1897.76 404.63 1892.34 406.107 1886.32 407.311L1892.59 438.689C1899.91 437.226 1906.82 435.37 1913.28 433.088L1902.63 402.912ZM1886.32 407.311C1880.26 408.522 1875.71 409 1872.46 409V441C1878.54 441 1885.32 440.145 1892.59 438.689L1886.32 407.311ZM1872.46 409C1861.66 409 1851.6 407.161 1842.17 403.555L1830.74 433.445C1843.98 438.506 1857.92 441 1872.46 441V409ZM1842.71 403.771C1833.51 399.87 1825.32 394.457 1818.05 387.467L1795.87 410.533C1805.93 420.209 1817.4 427.796 1830.21 433.229L1842.71 403.771ZM1818.27 387.686C1811.48 380.9 1805.92 372.638 1801.66 362.697L1772.25 375.303C1777.99 388.695 1785.76 400.433 1795.64 410.314L1818.27 387.686ZM1801.73 362.846C1797.65 353.073 1795.46 341.709 1795.46 328.5H1763.46C1763.46 345.291 1766.26 360.927 1772.19 375.154L1801.73 362.846ZM1795.46 328.5V323.5H1763.46V328.5H1795.46ZM1795.46 323.5V167H1763.46V323.5H1795.46ZM1795.46 167C1795.46 154.81 1797.48 143.795 1801.37 133.799L1771.54 122.201C1766.1 136.205 1763.46 151.19 1763.46 167H1795.46ZM1801.28 134.011C1805.89 122.656 1810.47 115.334 1814.57 111.004L1791.34 88.9961C1783.44 97.3329 1777.03 108.677 1771.63 121.989L1801.28 134.011ZM1814.85 110.703C1820.7 104.208 1824.88 100.099 1827.59 97.8833L1807.33 73.1167C1802.7 76.9008 1797.22 82.4582 1791.06 89.2965L1814.85 110.703ZM1828.22 97.339C1831.12 94.7066 1834.05 92.5518 1837.02 90.8204L1820.9 63.1795C1815.86 66.1149 1811.13 69.6268 1806.69 73.6609L1828.22 97.339ZM1836.11 91.3108C1839.15 89.7944 1843.9 87.5688 1850.52 84.5907L1837.39 55.4092C1830.68 58.4311 1825.44 60.8722 1821.8 62.6891L1836.11 91.3108ZM1851.11 84.3108C1854.47 82.6297 1861.35 81 1873.46 81V49C1859.56 49 1846.77 50.7035 1836.8 55.6891L1851.11 84.3108ZM1873.46 81C1876.36 81 1880.64 81.5385 1886.58 83.0223L1894.34 51.9777C1886.94 50.1281 1879.89 49 1873.46 49V81ZM1886.58 83.0223C1893.01 84.6303 1898.7 86.2151 1903.68 87.7717L1913.23 57.2283C1907.54 55.4515 1901.24 53.703 1894.34 51.9777L1886.58 83.0223ZM1902.55 87.3687L1941.55 102.869L1953.37 73.1312L1914.37 57.6312L1902.55 87.3687ZM1932.34 82.7662L1923.34 108.766L1953.58 119.234L1962.58 93.2338L1932.34 82.7662ZM1944.28 99.0976L1900.78 82.0976L1889.13 111.902L1932.63 128.902L1944.28 99.0976ZM1900.9 82.1444C1896.97 80.5719 1892.89 79.2149 1888.67 78.0638L1880.25 108.936C1883.36 109.785 1886.28 110.761 1889.01 111.856L1900.9 82.1444ZM1888.67 78.0637C1883.82 76.7409 1878.9 76 1873.96 76V108C1875.69 108 1877.76 108.259 1880.25 108.936L1888.67 78.0637ZM1873.96 76C1862.27 76 1851.15 78.8449 1840.84 84.4313L1856.08 112.569C1861.76 109.488 1867.65 108 1873.96 108V76ZM1841.3 84.1892C1831.43 89.1268 1822.68 95.8738 1815.09 104.265L1838.82 125.735C1843.9 120.126 1849.49 115.873 1855.61 112.811L1841.3 84.1892ZM1814.81 104.587C1807.63 112.962 1801.92 122.457 1797.64 132.963L1827.27 145.037C1830.33 137.543 1834.28 131.038 1839.11 125.413L1814.81 104.587ZM1797.45 133.443C1793.46 144.235 1791.46 155.451 1791.46 167H1823.46C1823.46 159.216 1824.79 151.765 1827.46 144.557L1797.45 133.443ZM1791.46 166.899L1790.46 325.899L1822.46 326.101L1823.46 167.101L1791.46 166.899ZM1992.22 417.5H1976.22V433.5H1992.22V417.5ZM1992.22 373.5V357.5H1976.22V373.5H1992.22ZM2026.72 373.5H2042.72V357.5H2026.72V373.5ZM2026.72 417.5V433.5H2042.72V417.5H2026.72ZM2008.22 417.5V373.5H1976.22V417.5H2008.22ZM1992.22 389.5H2026.72V357.5H1992.22V389.5ZM2010.72 373.5V417.5H2042.72V373.5H2010.72ZM2026.72 401.5H1992.22V433.5H2026.72V401.5ZM2214.05 292.5V308.5H2233.87L2229.69 289.125L2214.05 292.5ZM2173.05 102.5L2188.69 99.125L2185.97 86.5H2173.05V102.5ZM2166.55 102.5V86.5H2153.67L2150.92 99.0857L2166.55 102.5ZM2125.05 292.5L2109.42 289.086L2105.18 308.5H2125.05V292.5ZM2117.05 322V306H2104.26L2101.44 318.478L2117.05 322ZM2095.05 419.5V435.5H2107.84L2110.66 423.022L2095.05 419.5ZM2068.05 419.5L2052.45 415.935L2047.98 435.5H2068.05V419.5ZM2148.05 69.5V53.5H2135.3L2132.45 65.9348L2148.05 69.5ZM2190.55 69.5L2206.15 65.9348L2203.31 53.5H2190.55V69.5ZM2270.55 419.5V435.5H2290.62L2286.15 415.935L2270.55 419.5ZM2244.05 419.5L2228.46 423.098L2231.32 435.5H2244.05V419.5ZM2221.55 322L2237.14 318.402L2234.28 306H2221.55V322ZM2229.69 289.125L2188.69 99.125L2157.41 105.875L2198.41 295.875L2229.69 289.125ZM2173.05 86.5H2166.55V118.5H2173.05V86.5ZM2150.92 99.0857L2109.42 289.086L2140.68 295.914L2182.18 105.914L2150.92 99.0857ZM2125.05 308.5H2214.05V276.5H2125.05V308.5ZM2101.44 318.478L2079.44 415.978L2110.66 423.022L2132.66 325.522L2101.44 318.478ZM2095.05 403.5H2068.05V435.5H2095.05V403.5ZM2083.65 423.065L2163.65 73.0652L2132.45 65.9348L2052.45 415.935L2083.65 423.065ZM2148.05 85.5H2190.55V53.5H2148.05V85.5ZM2174.95 73.0652L2254.95 423.065L2286.15 415.935L2206.15 65.9348L2174.95 73.0652ZM2270.55 403.5H2244.05V435.5H2270.55V403.5ZM2259.64 415.902L2237.14 318.402L2205.96 325.598L2228.46 423.098L2259.64 415.902ZM2221.55 306H2117.05V338H2221.55V306Z" fill="white"/>
</g>
<g filter="url(#filter1_d)">
<path d="M81.9219 146H68.4219V43.625H81.9219V146ZM185.352 146H171.781L120.242 67.1094V146H106.672V43.625H120.242L171.922 122.867V43.625H185.352V146ZM243.219 128.07L272.469 43.625H287.234L249.266 146H237.312L199.414 43.625H214.109L243.219 128.07ZM358.883 98.6797H314.516V134.961H366.055V146H301.016V43.625H365.352V54.7344H314.516V87.6406H358.883V98.6797ZM420.406 104.586H396.359V146H382.789V43.625H416.68C428.211 43.625 437.07 46.25 443.258 51.5C449.492 56.75 452.609 64.3906 452.609 74.4219C452.609 80.7969 450.875 86.3516 447.406 91.0859C443.984 95.8203 439.203 99.3594 433.062 101.703L457.109 145.156V146H442.625L420.406 104.586ZM396.359 93.5469H417.102C423.805 93.5469 429.125 91.8125 433.062 88.3438C437.047 84.875 439.039 80.2344 439.039 74.4219C439.039 68.0938 437.141 63.2422 433.344 59.8672C429.594 56.4922 424.156 54.7813 417.031 54.7344H396.359V93.5469ZM501.758 100.367C490.18 97.0391 481.742 92.9609 476.445 88.1328C471.195 83.2578 468.57 77.2578 468.57 70.1328C468.57 62.0703 471.781 55.4141 478.203 50.1641C484.672 44.8672 493.062 42.2188 503.375 42.2188C510.406 42.2188 516.664 43.5781 522.148 46.2969C527.68 49.0156 531.945 52.7656 534.945 57.5469C537.992 62.3281 539.516 67.5547 539.516 73.2266H525.945C525.945 67.0391 523.977 62.1875 520.039 58.6719C516.102 55.1094 510.547 53.3281 503.375 53.3281C496.719 53.3281 491.516 54.8047 487.766 57.7578C484.062 60.6641 482.211 64.7188 482.211 69.9219C482.211 74.0938 483.969 77.6328 487.484 80.5391C491.047 83.3984 497.07 86.0234 505.555 88.4141C514.086 90.8047 520.742 93.4531 525.523 96.3594C530.352 99.2188 533.914 102.57 536.211 106.414C538.555 110.258 539.727 114.781 539.727 119.984C539.727 128.281 536.492 134.938 530.023 139.953C523.555 144.922 514.906 147.406 504.078 147.406C497.047 147.406 490.484 146.07 484.391 143.398C478.297 140.68 473.586 136.977 470.258 132.289C466.977 127.602 465.336 122.281 465.336 116.328H478.906C478.906 122.516 481.18 127.414 485.727 131.023C490.32 134.586 496.438 136.367 504.078 136.367C511.203 136.367 516.664 134.914 520.461 132.008C524.258 129.102 526.156 125.141 526.156 120.125C526.156 115.109 524.398 111.242 520.883 108.523C517.367 105.758 510.992 103.039 501.758 100.367ZM571.578 146H558.078V43.625H571.578V146ZM675.078 98.1172C675.078 108.148 673.391 116.914 670.016 124.414C666.641 131.867 661.859 137.562 655.672 141.5C649.484 145.438 642.266 147.406 634.016 147.406C625.953 147.406 618.805 145.438 612.57 141.5C606.336 137.516 601.484 131.867 598.016 124.555C594.594 117.195 592.836 108.688 592.742 99.0312V91.6484C592.742 81.8047 594.453 73.1094 597.875 65.5625C601.297 58.0156 606.125 52.25 612.359 48.2656C618.641 44.2344 625.812 42.2188 633.875 42.2188C642.078 42.2188 649.297 44.2109 655.531 48.1953C661.812 52.1328 666.641 57.875 670.016 65.4219C673.391 72.9219 675.078 81.6641 675.078 91.6484V98.1172ZM661.648 91.5078C661.648 79.3672 659.211 70.0625 654.336 63.5938C649.461 57.0781 642.641 53.8203 633.875 53.8203C625.344 53.8203 618.617 57.0781 613.695 63.5938C608.82 70.0625 606.312 79.0625 606.172 90.5938V98.1172C606.172 109.883 608.633 119.141 613.555 125.891C618.523 132.594 625.344 135.945 634.016 135.945C642.734 135.945 649.484 132.781 654.266 126.453C659.047 120.078 661.508 110.961 661.648 99.1016V91.5078ZM774.008 146H760.438L708.898 67.1094V146H695.328V43.625H708.898L760.578 122.867V43.625H774.008V146ZM855.852 98.6797H811.484V134.961H863.023V146H797.984V43.625H862.32V54.7344H811.484V87.6406H855.852V98.6797ZM909.992 100.367C898.414 97.0391 889.977 92.9609 884.68 88.1328C879.43 83.2578 876.805 77.2578 876.805 70.1328C876.805 62.0703 880.016 55.4141 886.438 50.1641C892.906 44.8672 901.297 42.2188 911.609 42.2188C918.641 42.2188 924.898 43.5781 930.383 46.2969C935.914 49.0156 940.18 52.7656 943.18 57.5469C946.227 62.3281 947.75 67.5547 947.75 73.2266H934.18C934.18 67.0391 932.211 62.1875 928.273 58.6719C924.336 55.1094 918.781 53.3281 911.609 53.3281C904.953 53.3281 899.75 54.8047 896 57.7578C892.297 60.6641 890.445 64.7188 890.445 69.9219C890.445 74.0938 892.203 77.6328 895.719 80.5391C899.281 83.3984 905.305 86.0234 913.789 88.4141C922.32 90.8047 928.977 93.4531 933.758 96.3594C938.586 99.2188 942.148 102.57 944.445 106.414C946.789 110.258 947.961 114.781 947.961 119.984C947.961 128.281 944.727 134.938 938.258 139.953C931.789 144.922 923.141 147.406 912.312 147.406C905.281 147.406 898.719 146.07 892.625 143.398C886.531 140.68 881.82 136.977 878.492 132.289C875.211 127.602 873.57 122.281 873.57 116.328H887.141C887.141 122.516 889.414 127.414 893.961 131.023C898.555 134.586 904.672 136.367 912.312 136.367C919.438 136.367 924.898 134.914 928.695 132.008C932.492 129.102 934.391 125.141 934.391 120.125C934.391 115.109 932.633 111.242 929.117 108.523C925.602 105.758 919.227 103.039 909.992 100.367Z" fill="white"/>
<path d="M81.9219 146V151H86.9219V146H81.9219ZM68.4219 146H63.4219V151H68.4219V146ZM68.4219 43.625V38.625H63.4219V43.625H68.4219ZM81.9219 43.625H86.9219V38.625H81.9219V43.625ZM81.9219 141H68.4219V151H81.9219V141ZM73.4219 146V43.625H63.4219V146H73.4219ZM68.4219 48.625H81.9219V38.625H68.4219V48.625ZM76.9219 43.625V146H86.9219V43.625H76.9219ZM185.352 146V151H190.352V146H185.352ZM171.781 146L167.595 148.735L169.075 151H171.781V146ZM120.242 67.1094L124.428 64.3747L115.242 50.3139V67.1094H120.242ZM120.242 146V151H125.242V146H120.242ZM106.672 146H101.672V151H106.672V146ZM106.672 43.625V38.625H101.672V43.625H106.672ZM120.242 43.625L124.43 40.8937L122.951 38.625H120.242V43.625ZM171.922 122.867L167.734 125.599L176.922 139.687V122.867H171.922ZM171.922 43.625V38.625H166.922V43.625H171.922ZM185.352 43.625H190.352V38.625H185.352V43.625ZM185.352 141H171.781V151H185.352V141ZM175.967 143.265L124.428 64.3747L116.056 69.844L167.595 148.735L175.967 143.265ZM115.242 67.1094V146H125.242V67.1094H115.242ZM120.242 141H106.672V151H120.242V141ZM111.672 146V43.625H101.672V146H111.672ZM106.672 48.625H120.242V38.625H106.672V48.625ZM116.054 46.3563L167.734 125.599L176.11 120.136L124.43 40.8937L116.054 46.3563ZM176.922 122.867V43.625H166.922V122.867H176.922ZM171.922 48.625H185.352V38.625H171.922V48.625ZM180.352 43.625V146H190.352V43.625H180.352ZM243.219 128.07L238.492 129.7L243.207 143.38L247.943 129.707L243.219 128.07ZM272.469 43.625V38.625H268.909L267.744 41.9885L272.469 43.625ZM287.234 43.625L291.922 45.3637L294.422 38.625H287.234V43.625ZM249.266 146V151H252.744L253.954 147.739L249.266 146ZM237.312 146L232.623 147.736L233.832 151H237.312V146ZM199.414 43.625V38.625H192.231L194.725 45.3608L199.414 43.625ZM214.109 43.625L218.836 41.9955L217.675 38.625H214.109V43.625ZM247.943 129.707L277.193 45.2615L267.744 41.9885L238.494 126.434L247.943 129.707ZM272.469 48.625H287.234V38.625H272.469V48.625ZM282.546 41.8863L244.578 144.261L253.954 147.739L291.922 45.3637L282.546 41.8863ZM249.266 141H237.312V151H249.266V141ZM242.002 144.264L204.103 41.8892L194.725 45.3608L232.623 147.736L242.002 144.264ZM199.414 48.625H214.109V38.625H199.414V48.625ZM209.382 45.2545L238.492 129.7L247.946 126.441L218.836 41.9955L209.382 45.2545ZM358.883 98.6797V103.68H363.883V98.6797H358.883ZM314.516 98.6797V93.6797H309.516V98.6797H314.516ZM314.516 134.961H309.516V139.961H314.516V134.961ZM366.055 134.961H371.055V129.961H366.055V134.961ZM366.055 146V151H371.055V146H366.055ZM301.016 146H296.016V151H301.016V146ZM301.016 43.625V38.625H296.016V43.625H301.016ZM365.352 43.625H370.352V38.625H365.352V43.625ZM365.352 54.7344V59.7344H370.352V54.7344H365.352ZM314.516 54.7344V49.7344H309.516V54.7344H314.516ZM314.516 87.6406H309.516V92.6406H314.516V87.6406ZM358.883 87.6406H363.883V82.6406H358.883V87.6406ZM358.883 93.6797H314.516V103.68H358.883V93.6797ZM309.516 98.6797V134.961H319.516V98.6797H309.516ZM314.516 139.961H366.055V129.961H314.516V139.961ZM361.055 134.961V146H371.055V134.961H361.055ZM366.055 141H301.016V151H366.055V141ZM306.016 146V43.625H296.016V146H306.016ZM301.016 48.625H365.352V38.625H301.016V48.625ZM360.352 43.625V54.7344H370.352V43.625H360.352ZM365.352 49.7344H314.516V59.7344H365.352V49.7344ZM309.516 54.7344V87.6406H319.516V54.7344H309.516ZM314.516 92.6406H358.883V82.6406H314.516V92.6406ZM353.883 87.6406V98.6797H363.883V87.6406H353.883ZM420.406 104.586L424.812 102.222L423.398 99.5859H420.406V104.586ZM396.359 104.586V99.5859H391.359V104.586H396.359ZM396.359 146V151H401.359V146H396.359ZM382.789 146H377.789V151H382.789V146ZM382.789 43.625V38.625H377.789V43.625H382.789ZM443.258 51.5L440.023 55.3125L440.03 55.3186L440.037 55.3246L443.258 51.5ZM447.406 91.0859L443.373 88.1309L443.363 88.1439L443.354 88.157L447.406 91.0859ZM433.062 101.703L431.28 97.0318L425.899 99.0854L428.688 104.124L433.062 101.703ZM457.109 145.156H462.109V143.865L461.484 142.735L457.109 145.156ZM457.109 146V151H462.109V146H457.109ZM442.625 146L438.219 148.364L439.633 151H442.625V146ZM396.359 93.5469H391.359V98.5469H396.359V93.5469ZM433.062 88.3438L429.779 84.5726L429.768 84.5823L429.757 84.592L433.062 88.3438ZM433.344 59.8672L429.999 63.5837L430.01 63.594L430.022 63.6042L433.344 59.8672ZM417.031 54.7344L417.064 49.7345L417.048 49.7344H417.031V54.7344ZM396.359 54.7344V49.7344H391.359V54.7344H396.359ZM420.406 99.5859H396.359V109.586H420.406V99.5859ZM391.359 104.586V146H401.359V104.586H391.359ZM396.359 141H382.789V151H396.359V141ZM387.789 146V43.625H377.789V146H387.789ZM382.789 48.625H416.68V38.625H382.789V48.625ZM416.68 48.625C427.518 48.625 435.054 51.0965 440.023 55.3125L446.493 47.6875C439.087 41.4035 428.904 38.625 416.68 38.625V48.625ZM440.037 55.3246C444.887 59.4086 447.609 65.4938 447.609 74.4219H457.609C457.609 63.2875 454.097 54.0914 446.478 47.6754L440.037 55.3246ZM447.609 74.4219C447.609 79.8309 446.159 84.3286 443.373 88.1309L451.44 94.041C455.591 88.3745 457.609 81.7629 457.609 74.4219H447.609ZM443.354 88.157C440.572 92.0057 436.628 94.9905 431.28 97.0318L434.845 106.374C441.778 103.728 447.397 99.6349 451.459 94.0149L443.354 88.157ZM428.688 104.124L452.735 147.577L461.484 142.735L437.437 99.2821L428.688 104.124ZM452.109 145.156V146H462.109V145.156H452.109ZM457.109 141H442.625V151H457.109V141ZM447.031 143.636L424.812 102.222L416 106.95L438.219 148.364L447.031 143.636ZM396.359 98.5469H417.102V88.5469H396.359V98.5469ZM417.102 98.5469C424.674 98.5469 431.286 96.572 436.368 92.0955L429.757 84.592C426.964 87.053 422.935 88.5469 417.102 88.5469V98.5469ZM436.346 92.1149C441.538 87.5945 444.039 81.5176 444.039 74.4219H434.039C434.039 78.9512 432.556 82.1555 429.779 84.5726L436.346 92.1149ZM444.039 74.4219C444.039 67.0438 441.783 60.6792 436.666 56.1301L430.022 63.6042C432.498 65.8052 434.039 69.1437 434.039 74.4219H444.039ZM436.689 56.1507C431.715 51.6742 424.911 49.7861 417.064 49.7345L416.998 59.7343C423.401 59.7764 427.473 61.3102 429.999 63.5837L436.689 56.1507ZM417.031 49.7344H396.359V59.7344H417.031V49.7344ZM391.359 54.7344V93.5469H401.359V54.7344H391.359ZM501.758 100.367L503.148 95.5642L503.139 95.5618L501.758 100.367ZM476.445 88.1328L473.043 91.7968L473.06 91.8125L473.077 91.8281L476.445 88.1328ZM478.203 50.1641L481.368 54.0351L481.371 54.0326L478.203 50.1641ZM522.148 46.2969L519.928 50.7766L519.935 50.7804L519.943 50.7841L522.148 46.2969ZM534.945 57.5469L530.71 60.2043L530.719 60.2192L530.729 60.2339L534.945 57.5469ZM539.516 73.2266V78.2266H544.516V73.2266H539.516ZM525.945 73.2266H520.945V78.2266H525.945V73.2266ZM520.039 58.6719L516.684 62.3796L516.697 62.3906L516.709 62.4016L520.039 58.6719ZM487.766 57.7578L490.853 61.6911L490.859 61.686L487.766 57.7578ZM487.484 80.5391L484.299 84.3928L484.326 84.4158L484.355 84.4384L487.484 80.5391ZM505.555 88.4141L504.199 93.2267L504.206 93.2286L505.555 88.4141ZM525.523 96.3594L522.926 100.632L522.951 100.647L522.976 100.662L525.523 96.3594ZM536.211 106.414L531.919 108.979L531.93 108.998L531.942 109.017L536.211 106.414ZM530.023 139.953L533.069 143.918L533.078 143.911L533.087 143.905L530.023 139.953ZM484.391 143.398L482.353 147.965L482.368 147.971L482.383 147.978L484.391 143.398ZM470.258 132.289L466.162 135.156L466.171 135.17L466.181 135.184L470.258 132.289ZM465.336 116.328V111.328H460.336V116.328H465.336ZM478.906 116.328H483.906V111.328H478.906V116.328ZM485.727 131.023L482.618 134.94L482.64 134.957L482.662 134.975L485.727 131.023ZM520.883 108.523L517.791 112.453L517.808 112.466L517.824 112.479L520.883 108.523ZM503.139 95.5618C491.86 92.3197 484.28 88.5092 479.814 84.4376L473.077 91.8281C479.204 97.4127 488.499 101.758 500.376 105.173L503.139 95.5618ZM479.848 84.4688C475.61 80.534 473.57 75.8587 473.57 70.1328H463.57C463.57 78.6569 466.781 85.9817 473.043 91.7968L479.848 84.4688ZM473.57 70.1328C473.57 63.62 476.069 58.3671 481.368 54.0351L475.038 46.293C467.494 52.461 463.57 60.5206 463.57 70.1328H473.57ZM481.371 54.0326C486.752 49.626 493.939 47.2188 503.375 47.2188V37.2188C492.186 37.2188 482.591 40.1084 475.035 46.2955L481.371 54.0326ZM503.375 47.2188C509.751 47.2188 515.23 48.4477 519.928 50.7766L524.369 41.8171C518.099 38.7086 511.062 37.2188 503.375 37.2188V47.2188ZM519.943 50.7841C524.72 53.1322 528.248 56.2813 530.71 60.2043L539.181 54.8894C535.642 49.2499 530.639 44.899 524.354 41.8096L519.943 50.7841ZM530.729 60.2339C533.264 64.212 534.516 68.5063 534.516 73.2266H544.516C544.516 66.6031 542.721 60.4443 539.162 54.8598L530.729 60.2339ZM539.516 68.2266H525.945V78.2266H539.516V68.2266ZM530.945 73.2266C530.945 65.8841 528.555 59.5722 523.369 54.9422L516.709 62.4016C519.398 64.8028 520.945 68.194 520.945 73.2266H530.945ZM523.394 54.9642C518.256 50.3154 511.346 48.3281 503.375 48.3281V58.3281C509.748 58.3281 513.948 59.9033 516.684 62.3796L523.394 54.9642ZM503.375 48.3281C496.032 48.3281 489.594 49.9539 484.672 53.8296L490.859 61.686C493.438 59.6555 497.406 58.3281 503.375 58.3281V48.3281ZM484.679 53.8245C479.63 57.7871 477.211 63.3683 477.211 69.9219H487.211C487.211 66.0692 488.495 63.541 490.853 61.6911L484.679 53.8245ZM477.211 69.9219C477.211 75.7358 479.756 80.6374 484.299 84.3928L490.67 76.6854C488.182 74.6282 487.211 72.4517 487.211 69.9219H477.211ZM484.355 84.4384C488.729 87.9493 495.557 90.7917 504.199 93.2267L506.911 83.6015C498.584 81.2552 493.365 78.8476 490.614 76.6397L484.355 84.4384ZM504.206 93.2286C512.522 95.5589 518.693 98.0585 522.926 100.632L528.121 92.0868C522.792 88.8477 515.65 86.0504 506.904 83.5995L504.206 93.2286ZM522.976 100.662C527.265 103.202 530.145 106.01 531.919 108.979L540.503 103.849C537.684 99.1311 533.438 95.2357 528.071 92.0572L522.976 100.662ZM531.942 109.017C533.737 111.961 534.727 115.554 534.727 119.984H544.727C544.727 114.008 543.372 108.554 540.48 103.811L531.942 109.017ZM534.727 119.984C534.727 126.76 532.188 131.948 526.96 136.002L533.087 143.905C540.797 137.927 544.727 129.802 544.727 119.984H534.727ZM526.978 135.988C521.63 140.095 514.165 142.406 504.078 142.406V152.406C515.648 152.406 525.479 149.749 533.069 143.918L526.978 135.988ZM504.078 142.406C497.698 142.406 491.824 141.198 486.398 138.819L482.383 147.978C489.145 150.943 496.396 152.406 504.078 152.406V142.406ZM486.428 138.832C481.018 136.419 477.066 133.242 474.335 129.394L466.181 135.184C470.105 140.711 475.576 144.941 482.353 147.965L486.428 138.832ZM474.354 129.422C471.686 125.61 470.336 121.299 470.336 116.328H460.336C460.336 123.263 462.267 129.593 466.162 135.156L474.354 129.422ZM465.336 121.328H478.906V111.328H465.336V121.328ZM473.906 116.328C473.906 123.925 476.788 130.312 482.618 134.94L488.835 127.107C485.571 124.516 483.906 121.106 483.906 116.328H473.906ZM482.662 134.975C488.374 139.404 495.678 141.367 504.078 141.367V131.367C497.197 131.367 492.267 129.768 488.791 127.072L482.662 134.975ZM504.078 141.367C511.787 141.367 518.495 139.809 523.5 135.978L517.422 128.037C514.833 130.019 510.619 131.367 504.078 131.367V141.367ZM523.5 135.978C528.602 132.073 531.156 126.608 531.156 120.125H521.156C521.156 123.673 519.914 126.13 517.422 128.037L523.5 135.978ZM531.156 120.125C531.156 113.788 528.85 108.364 523.942 104.568L517.824 112.479C519.946 114.12 521.156 116.43 521.156 120.125H531.156ZM523.974 104.594C519.643 101.187 512.453 98.2566 503.148 95.5642L500.368 105.17C509.531 107.821 515.091 110.329 517.791 112.453L523.974 104.594ZM571.578 146V151H576.578V146H571.578ZM558.078 146H553.078V151H558.078V146ZM558.078 43.625V38.625H553.078V43.625H558.078ZM571.578 43.625H576.578V38.625H571.578V43.625ZM571.578 141H558.078V151H571.578V141ZM563.078 146V43.625H553.078V146H563.078ZM558.078 48.625H571.578V38.625H558.078V48.625ZM566.578 43.625V146H576.578V43.625H566.578ZM670.016 124.414L674.57 126.477L674.575 126.466L670.016 124.414ZM612.57 141.5L609.878 145.713L609.889 145.72L609.9 145.727L612.57 141.5ZM598.016 124.555L593.482 126.663L593.49 126.68L593.498 126.698L598.016 124.555ZM592.742 99.0312H587.742V99.0555L587.742 99.0798L592.742 99.0312ZM612.359 48.2656L615.052 52.4787L615.06 52.4736L612.359 48.2656ZM655.531 48.1953L652.839 52.4084L652.857 52.4202L652.876 52.4317L655.531 48.1953ZM670.016 65.4219L665.451 67.4631L665.456 67.4737L670.016 65.4219ZM654.336 63.5938L650.332 66.5891L650.338 66.5961L650.343 66.603L654.336 63.5938ZM613.695 63.5938L609.706 60.58L609.702 60.5845L613.695 63.5938ZM606.172 90.5938L601.172 90.5328L601.172 90.5633V90.5938H606.172ZM613.555 125.891L609.515 128.836L609.526 128.852L609.538 128.868L613.555 125.891ZM654.266 126.453L658.255 129.467L658.26 129.46L658.266 129.453L654.266 126.453ZM661.648 99.1016L666.648 99.1608L666.648 99.1312V99.1016H661.648ZM670.078 98.1172C670.078 107.593 668.484 115.633 665.456 122.362L674.575 126.466C678.297 118.195 680.078 108.704 680.078 98.1172H670.078ZM665.461 122.352C662.439 129.025 658.262 133.925 652.987 137.282L658.356 145.718C665.456 141.2 670.843 134.709 674.57 126.477L665.461 122.352ZM652.987 137.282C647.7 140.647 641.437 142.406 634.016 142.406V152.406C643.094 152.406 651.269 150.228 658.356 145.718L652.987 137.282ZM634.016 142.406C626.807 142.406 620.602 140.659 615.24 137.273L609.9 145.727C617.008 150.216 625.1 152.406 634.016 152.406V142.406ZM615.263 137.287C609.893 133.855 605.639 128.959 602.533 122.412L593.498 126.698C597.33 134.775 602.779 141.177 609.878 145.713L615.263 137.287ZM602.549 122.447C599.479 115.844 597.83 108.06 597.742 98.9827L587.742 99.0798C587.842 109.315 589.708 118.547 593.482 126.663L602.549 122.447ZM597.742 99.0312V91.6484H587.742V99.0312H597.742ZM597.742 91.6484C597.742 82.3848 599.351 74.4152 602.429 67.6273L593.321 63.4977C589.555 71.8036 587.742 81.2245 587.742 91.6484H597.742ZM602.429 67.6273C605.501 60.8522 609.728 55.8811 615.052 52.4787L609.667 44.0525C602.522 48.6189 597.093 55.179 593.321 63.4977L602.429 67.6273ZM615.06 52.4736C620.471 49.0011 626.69 47.2188 633.875 47.2188V37.2188C624.935 37.2188 616.811 39.4677 609.659 44.0577L615.06 52.4736ZM633.875 47.2188C641.231 47.2188 647.494 48.9928 652.839 52.4084L658.224 43.9822C651.1 39.4291 642.925 37.2188 633.875 37.2188V47.2188ZM652.876 52.4317C658.222 55.7833 662.432 60.7128 665.451 67.4631L674.58 63.3807C670.849 55.0372 665.403 48.4824 658.187 43.9589L652.876 52.4317ZM665.456 67.4737C668.485 74.2059 670.078 82.2232 670.078 91.6484H680.078C680.078 81.1049 678.296 71.6379 674.575 63.3701L665.456 67.4737ZM670.078 91.6484V98.1172H680.078V91.6484H670.078ZM666.648 91.5078C666.648 78.7966 664.111 68.2573 658.329 60.5845L650.343 66.603C654.311 71.8677 656.648 79.9377 656.648 91.5078H666.648ZM658.339 60.5984C652.439 52.712 644.075 48.8203 633.875 48.8203V58.8203C641.206 58.8203 646.483 61.4442 650.332 66.5891L658.339 60.5984ZM633.875 48.8203C623.858 48.8203 615.621 52.7494 609.706 60.58L617.685 66.6075C621.613 61.4069 626.829 58.8203 633.875 58.8203V48.8203ZM609.702 60.5845C603.966 68.1963 601.321 78.3731 601.172 90.5328L611.172 90.6547C611.304 79.7519 613.675 71.9287 617.688 66.603L609.702 60.5845ZM601.172 90.5938V98.1172H611.172V90.5938H601.172ZM601.172 98.1172C601.172 110.522 603.76 120.945 609.515 128.836L617.595 122.945C613.505 117.336 611.172 109.244 611.172 98.1172H601.172ZM609.538 128.868C615.492 136.901 623.833 140.945 634.016 140.945V130.945C626.854 130.945 621.554 128.286 617.571 122.913L609.538 128.868ZM634.016 140.945C644.123 140.945 652.426 137.183 658.255 129.467L650.276 123.439C646.543 128.38 641.346 130.945 634.016 130.945V140.945ZM658.266 129.453C663.927 121.905 666.501 111.589 666.648 99.1608L656.649 99.0423C656.515 110.333 654.167 118.251 650.266 123.453L658.266 129.453ZM666.648 99.1016V91.5078H656.648V99.1016H666.648ZM774.008 146V151H779.008V146H774.008ZM760.438 146L756.252 148.735L757.732 151H760.438V146ZM708.898 67.1094L713.084 64.3747L703.898 50.3139V67.1094H708.898ZM708.898 146V151H713.898V146H708.898ZM695.328 146H690.328V151H695.328V146ZM695.328 43.625V38.625H690.328V43.625H695.328ZM708.898 43.625L713.086 40.8937L711.607 38.625H708.898V43.625ZM760.578 122.867L756.39 125.599L765.578 139.687V122.867H760.578ZM760.578 43.625V38.625H755.578V43.625H760.578ZM774.008 43.625H779.008V38.625H774.008V43.625ZM774.008 141H760.438V151H774.008V141ZM764.623 143.265L713.084 64.3747L704.713 69.844L756.252 148.735L764.623 143.265ZM703.898 67.1094V146H713.898V67.1094H703.898ZM708.898 141H695.328V151H708.898V141ZM700.328 146V43.625H690.328V146H700.328ZM695.328 48.625H708.898V38.625H695.328V48.625ZM704.71 46.3563L756.39 125.599L764.766 120.136L713.086 40.8937L704.71 46.3563ZM765.578 122.867V43.625H755.578V122.867H765.578ZM760.578 48.625H774.008V38.625H760.578V48.625ZM769.008 43.625V146H779.008V43.625H769.008ZM855.852 98.6797V103.68H860.852V98.6797H855.852ZM811.484 98.6797V93.6797H806.484V98.6797H811.484ZM811.484 134.961H806.484V139.961H811.484V134.961ZM863.023 134.961H868.023V129.961H863.023V134.961ZM863.023 146V151H868.023V146H863.023ZM797.984 146H792.984V151H797.984V146ZM797.984 43.625V38.625H792.984V43.625H797.984ZM862.32 43.625H867.32V38.625H862.32V43.625ZM862.32 54.7344V59.7344H867.32V54.7344H862.32ZM811.484 54.7344V49.7344H806.484V54.7344H811.484ZM811.484 87.6406H806.484V92.6406H811.484V87.6406ZM855.852 87.6406H860.852V82.6406H855.852V87.6406ZM855.852 93.6797H811.484V103.68H855.852V93.6797ZM806.484 98.6797V134.961H816.484V98.6797H806.484ZM811.484 139.961H863.023V129.961H811.484V139.961ZM858.023 134.961V146H868.023V134.961H858.023ZM863.023 141H797.984V151H863.023V141ZM802.984 146V43.625H792.984V146H802.984ZM797.984 48.625H862.32V38.625H797.984V48.625ZM857.32 43.625V54.7344H867.32V43.625H857.32ZM862.32 49.7344H811.484V59.7344H862.32V49.7344ZM806.484 54.7344V87.6406H816.484V54.7344H806.484ZM811.484 92.6406H855.852V82.6406H811.484V92.6406ZM850.852 87.6406V98.6797H860.852V87.6406H850.852ZM909.992 100.367L911.382 95.5642L911.374 95.5618L909.992 100.367ZM884.68 88.1328L881.277 91.7968L881.294 91.8125L881.311 91.8281L884.68 88.1328ZM886.438 50.1641L889.602 54.0351L889.605 54.0326L886.438 50.1641ZM930.383 46.2969L928.162 50.7766L928.17 50.7804L928.177 50.7841L930.383 46.2969ZM943.18 57.5469L938.944 60.2043L938.954 60.2192L938.963 60.2339L943.18 57.5469ZM947.75 73.2266V78.2266H952.75V73.2266H947.75ZM934.18 73.2266H929.18V78.2266H934.18V73.2266ZM928.273 58.6719L924.919 62.3796L924.931 62.3906L924.943 62.4016L928.273 58.6719ZM896 57.7578L899.087 61.6911L899.093 61.686L896 57.7578ZM895.719 80.5391L892.533 84.3928L892.561 84.4158L892.589 84.4384L895.719 80.5391ZM913.789 88.4141L912.433 93.2267L912.44 93.2286L913.789 88.4141ZM933.758 96.3594L931.161 100.632L931.185 100.647L931.21 100.662L933.758 96.3594ZM944.445 106.414L940.153 108.979L940.165 108.998L940.176 109.017L944.445 106.414ZM938.258 139.953L941.304 143.918L941.313 143.911L941.322 143.905L938.258 139.953ZM892.625 143.398L890.588 147.965L890.602 147.971L890.617 147.978L892.625 143.398ZM878.492 132.289L874.396 135.156L874.406 135.17L874.415 135.184L878.492 132.289ZM873.57 116.328V111.328H868.57V116.328H873.57ZM887.141 116.328H892.141V111.328H887.141V116.328ZM893.961 131.023L890.852 134.94L890.874 134.957L890.897 134.975L893.961 131.023ZM929.117 108.523L926.026 112.453L926.042 112.466L926.058 112.479L929.117 108.523ZM911.374 95.5618C900.095 92.3197 892.515 88.5092 888.048 84.4376L881.311 91.8281C887.438 97.4127 896.733 101.758 908.611 105.173L911.374 95.5618ZM888.082 84.4688C883.844 80.534 881.805 75.8587 881.805 70.1328H871.805C871.805 78.6569 875.015 85.9817 881.277 91.7968L888.082 84.4688ZM881.805 70.1328C881.805 63.62 884.303 58.3671 889.602 54.0351L883.273 46.293C875.728 52.461 871.805 60.5206 871.805 70.1328H881.805ZM889.605 54.0326C894.987 49.626 902.174 47.2188 911.609 47.2188V37.2188C900.42 37.2188 890.826 40.1084 883.27 46.2955L889.605 54.0326ZM911.609 47.2188C917.985 47.2188 923.464 48.4477 928.162 50.7766L932.604 41.8171C926.333 38.7086 919.296 37.2188 911.609 37.2188V47.2188ZM928.177 50.7841C932.954 53.1322 936.483 56.2813 938.944 60.2043L947.415 54.8894C943.877 49.2499 938.874 44.899 932.588 41.8096L928.177 50.7841ZM938.963 60.2339C941.498 64.212 942.75 68.5063 942.75 73.2266H952.75C952.75 66.6031 950.955 60.4443 947.396 54.8598L938.963 60.2339ZM947.75 68.2266H934.18V78.2266H947.75V68.2266ZM939.18 73.2266C939.18 65.8841 936.789 59.5722 931.604 54.9422L924.943 62.4016C927.633 64.8028 929.18 68.194 929.18 73.2266H939.18ZM931.628 54.9642C926.49 50.3154 919.581 48.3281 911.609 48.3281V58.3281C917.982 58.3281 922.182 59.9033 924.919 62.3796L931.628 54.9642ZM911.609 48.3281C904.266 48.3281 897.828 49.9539 892.907 53.8296L899.093 61.686C901.672 59.6555 905.64 58.3281 911.609 58.3281V48.3281ZM892.913 53.8245C887.864 57.7871 885.445 63.3683 885.445 69.9219H895.445C895.445 66.0692 896.73 63.541 899.087 61.6911L892.913 53.8245ZM885.445 69.9219C885.445 75.7358 887.99 80.6374 892.533 84.3928L898.904 76.6854C896.416 74.6282 895.445 72.4517 895.445 69.9219H885.445ZM892.589 84.4384C896.963 87.9493 903.791 90.7917 912.433 93.2267L915.145 83.6015C906.818 81.2552 901.599 78.8476 898.848 76.6397L892.589 84.4384ZM912.44 93.2286C920.756 95.5589 926.927 98.0585 931.161 100.632L936.355 92.0868C931.026 88.8477 923.885 86.0504 915.138 83.5995L912.44 93.2286ZM931.21 100.662C935.499 103.202 938.379 106.01 940.153 108.979L948.737 103.849C945.918 99.1311 941.673 95.2357 936.306 92.0572L931.21 100.662ZM940.176 109.017C941.971 111.961 942.961 115.554 942.961 119.984H952.961C952.961 114.008 951.607 108.554 948.714 103.811L940.176 109.017ZM942.961 119.984C942.961 126.76 940.422 131.948 935.194 136.002L941.322 143.905C949.031 137.927 952.961 129.802 952.961 119.984H942.961ZM935.212 135.988C929.865 140.095 922.399 142.406 912.312 142.406V152.406C923.882 152.406 933.713 149.749 941.304 143.918L935.212 135.988ZM912.312 142.406C905.932 142.406 900.058 141.198 894.633 138.819L890.617 147.978C897.38 150.943 904.63 152.406 912.312 152.406V142.406ZM894.662 138.832C889.253 136.419 885.301 133.242 882.569 129.394L874.415 135.184C878.34 140.711 883.81 144.941 890.588 147.965L894.662 138.832ZM882.588 129.422C879.92 125.61 878.57 121.299 878.57 116.328H868.57C868.57 123.263 870.502 129.593 874.396 135.156L882.588 129.422ZM873.57 121.328H887.141V111.328H873.57V121.328ZM882.141 116.328C882.141 123.925 885.023 130.312 890.852 134.94L897.07 127.107C893.805 124.516 892.141 121.106 892.141 116.328H882.141ZM890.897 134.975C896.608 139.404 903.912 141.367 912.312 141.367V131.367C905.432 131.367 900.501 129.768 897.025 127.072L890.897 134.975ZM912.312 141.367C920.022 141.367 926.73 139.809 931.734 135.978L925.656 128.037C923.067 130.019 918.853 131.367 912.312 131.367V141.367ZM931.734 135.978C936.836 132.073 939.391 126.608 939.391 120.125H929.391C929.391 123.673 928.148 126.13 925.656 128.037L931.734 135.978ZM939.391 120.125C939.391 113.788 937.085 108.364 932.176 104.568L926.058 112.479C928.181 114.12 929.391 116.43 929.391 120.125H939.391ZM932.209 104.594C927.878 101.187 920.687 98.2566 911.382 95.5642L908.602 105.17C917.766 107.821 923.326 110.329 926.026 112.453L932.209 104.594Z" fill="#FFFDFD"/>
</g>
<g filter="url(#filter2_d)">
<path d="M63.0356 420V215.25H120.833C138.645 215.25 154.395 219.188 168.083 227.062C181.77 234.938 192.317 246.141 199.723 260.672C207.223 275.203 211.02 291.891 211.114 310.734V323.812C211.114 343.125 207.364 360.047 199.864 374.578C192.458 389.109 181.817 400.266 167.942 408.047C154.161 415.828 138.083 419.812 119.708 420H63.0356ZM90.0356 237.469V397.922H118.442C139.254 397.922 155.426 391.453 166.958 378.516C178.583 365.578 184.395 347.156 184.395 323.25V311.297C184.395 288.047 178.911 270 167.942 257.156C157.067 244.219 141.598 237.656 121.536 237.469H90.0356ZM410.976 324.234C410.976 344.297 407.601 361.828 400.851 376.828C394.101 391.734 384.538 403.125 372.163 411C359.788 418.875 345.351 422.812 328.851 422.812C312.726 422.812 298.429 418.875 285.96 411C273.491 403.031 263.788 391.734 256.851 377.109C250.007 362.391 246.491 345.375 246.304 326.062V311.297C246.304 291.609 249.726 274.219 256.569 259.125C263.413 244.031 273.069 232.5 285.538 224.531C298.101 216.469 312.444 212.438 328.569 212.438C344.976 212.438 359.413 216.422 371.882 224.391C384.444 232.266 394.101 243.75 400.851 258.844C407.601 273.844 410.976 291.328 410.976 311.297V324.234ZM384.116 311.016C384.116 286.734 379.241 268.125 369.491 255.188C359.741 242.156 346.101 235.641 328.569 235.641C311.507 235.641 298.054 242.156 288.21 255.188C278.46 268.125 273.444 286.125 273.163 309.188V324.234C273.163 347.766 278.085 366.281 287.929 379.781C297.866 393.188 311.507 399.891 328.851 399.891C346.288 399.891 359.788 393.562 369.351 380.906C378.913 368.156 383.835 349.922 384.116 326.203V311.016ZM610.275 420H583.134L480.056 262.219V420H452.916V215.25H480.056L583.416 373.734V215.25H610.275V420ZM581.166 164.906C581.166 175.031 578.259 183.234 572.447 189.516C566.728 195.797 559.556 198.938 550.931 198.938C547.088 198.938 543.759 198.469 540.947 197.531C538.134 196.594 534.431 194.672 529.838 191.766C525.338 188.859 522.056 187.125 519.994 186.562C518.025 185.906 515.728 185.578 513.103 185.578C509.259 185.578 505.978 187.078 503.259 190.078C500.541 192.984 499.181 196.734 499.181 201.328L481.744 200.344C481.744 190.312 484.556 182.016 490.181 175.453C495.9 168.891 503.119 165.609 511.838 165.609C515.119 165.609 518.072 166.078 520.697 167.016C523.322 167.953 526.884 169.781 531.384 172.5C535.884 175.219 539.306 177 541.65 177.844C544.088 178.688 546.759 179.109 549.666 179.109C553.697 179.109 557.025 177.516 559.65 174.328C562.369 171.141 563.728 167.438 563.728 163.219L581.166 164.906ZM775.262 366.562H689.481L670.215 420H642.371L720.559 215.25H744.184L822.512 420H794.809L775.262 366.562ZM697.637 344.344H767.246L732.371 248.578L697.637 344.344ZM1081.75 420H1054.61L951.533 262.219V420H924.392V215.25H951.533L1054.89 373.734V215.25H1081.75V420ZM1246.88 325.359H1158.14V397.922H1261.22V420H1131.14V215.25H1259.82V237.469H1158.14V303.281H1246.88V325.359ZM1371.37 337.172H1323.27V420H1296.13V215.25H1363.91C1386.97 215.25 1404.69 220.5 1417.07 231C1429.54 241.5 1435.77 256.781 1435.77 276.844C1435.77 289.594 1432.3 300.703 1425.37 310.172C1418.52 319.641 1408.96 326.719 1396.68 331.406L1444.77 418.312V420H1415.8L1371.37 337.172ZM1323.27 315.094H1364.76C1378.16 315.094 1388.8 311.625 1396.68 304.688C1404.65 297.75 1408.63 288.469 1408.63 276.844C1408.63 264.188 1404.83 254.484 1397.24 247.734C1389.74 240.984 1378.87 237.562 1364.62 237.469H1323.27V315.094ZM1504.15 420H1477.15V215.25H1504.15V420ZM1670.68 366.562H1584.9L1565.64 420H1537.79L1615.98 215.25H1639.6L1717.93 420H1690.23L1670.68 366.562ZM1593.06 344.344H1662.67L1627.79 248.578L1593.06 344.344Z" fill="white"/>
<path d="M63.0356 420H51.0356V432H63.0356V420ZM63.0356 215.25V203.25H51.0356V215.25H63.0356ZM199.723 260.672L189.032 266.121L189.046 266.148L189.06 266.176L199.723 260.672ZM211.114 310.734H223.114V310.705L223.114 310.675L211.114 310.734ZM199.864 374.578L189.2 369.074L189.186 369.102L189.172 369.129L199.864 374.578ZM167.942 408.047L162.072 397.58L162.057 397.589L162.042 397.597L167.942 408.047ZM119.708 420V432H119.769L119.83 431.999L119.708 420ZM90.0356 237.469V225.469H78.0356V237.469H90.0356ZM90.0356 397.922H78.0356V409.922H90.0356V397.922ZM166.958 378.516L158.032 370.495L158.015 370.513L157.999 370.531L166.958 378.516ZM167.942 257.156L158.756 264.878L158.786 264.914L158.817 264.949L167.942 257.156ZM121.536 237.469L121.648 225.469L121.592 225.469H121.536V237.469ZM75.0356 420V215.25H51.0356V420H75.0356ZM63.0356 227.25H120.833V203.25H63.0356V227.25ZM120.833 227.25C136.819 227.25 150.455 230.765 162.098 237.464L174.067 216.661C158.335 207.61 140.471 203.25 120.833 203.25V227.25ZM162.098 237.464C173.701 244.139 182.645 253.59 189.032 266.121L210.415 255.223C201.989 238.691 189.839 225.736 174.067 216.661L162.098 237.464ZM189.06 266.176C195.567 278.783 199.028 293.555 199.114 310.794L223.114 310.675C223.012 290.226 218.879 271.623 210.387 255.168L189.06 266.176ZM199.114 310.734V323.812H223.114V310.734H199.114ZM199.114 323.812C199.114 341.556 195.676 356.527 189.2 369.074L210.527 380.082C219.051 363.566 223.114 344.694 223.114 323.812H199.114ZM189.172 369.129C182.814 381.605 173.825 390.989 162.072 397.58L173.812 418.513C189.809 409.542 202.101 396.614 210.555 380.027L189.172 369.129ZM162.042 397.597C150.29 404.233 136.263 407.83 119.585 408.001L119.83 431.999C139.902 431.795 158.031 427.424 173.842 418.496L162.042 397.597ZM119.708 408H63.0356V432H119.708V408ZM78.0356 237.469V397.922H102.036V237.469H78.0356ZM90.0356 409.922H118.442V385.922H90.0356V409.922ZM118.442 409.922C141.927 409.922 161.652 402.503 175.916 386.5L157.999 370.531C149.2 380.403 136.582 385.922 118.442 385.922V409.922ZM175.883 386.536C190.124 370.688 196.395 349.002 196.395 323.25H172.395C172.395 345.31 167.041 360.469 158.032 370.495L175.883 386.536ZM196.395 323.25V311.297H172.395V323.25H196.395ZM196.395 311.297C196.395 286.264 190.486 265.076 177.067 249.363L158.817 264.949C167.335 274.924 172.395 289.83 172.395 311.297H196.395ZM177.128 249.435C163.571 233.307 144.492 225.683 121.648 225.469L121.423 249.468C138.704 249.63 150.563 255.13 158.756 264.878L177.128 249.435ZM121.536 225.469H90.0356V249.469H121.536V225.469ZM400.851 376.828L411.782 381.778L411.788 381.765L411.794 381.753L400.851 376.828ZM285.96 411L279.498 421.111L279.525 421.129L279.552 421.146L285.96 411ZM256.851 377.109L245.969 382.169L245.989 382.211L246.009 382.252L256.851 377.109ZM246.304 326.062H234.304V326.121L234.304 326.179L246.304 326.062ZM285.538 224.531L292 234.643L292.01 234.636L292.02 234.63L285.538 224.531ZM371.882 224.391L365.42 234.502L365.464 234.53L365.508 234.558L371.882 224.391ZM400.851 258.844L389.896 263.743L389.902 263.755L389.908 263.768L400.851 258.844ZM369.491 255.188L359.883 262.376L359.895 262.393L359.908 262.41L369.491 255.188ZM288.21 255.188L278.635 247.954L278.627 247.965L288.21 255.188ZM273.163 309.188L261.164 309.041L261.163 309.114V309.188H273.163ZM287.929 379.781L278.233 386.851L278.26 386.889L278.288 386.927L287.929 379.781ZM369.351 380.906L378.925 388.14L378.938 388.123L378.951 388.106L369.351 380.906ZM384.116 326.203L396.115 326.345L396.116 326.274V326.203H384.116ZM398.976 324.234C398.976 342.964 395.825 358.753 389.908 371.904L411.794 381.753C419.376 364.903 422.976 345.63 422.976 324.234H398.976ZM389.919 371.878C384.016 384.914 375.906 394.395 365.721 400.876L378.606 421.124C393.171 411.855 404.185 398.554 411.782 381.778L389.919 371.878ZM365.721 400.876C355.505 407.377 343.362 410.812 328.851 410.812V434.812C347.339 434.812 364.072 430.373 378.606 421.124L365.721 400.876ZM328.851 410.812C314.774 410.812 302.741 407.406 292.368 400.854L279.552 421.146C294.116 430.344 310.677 434.812 328.851 434.812V410.812ZM292.422 400.889C282.027 394.245 273.759 384.755 267.693 371.966L246.009 382.252C253.817 398.714 264.955 411.817 279.498 421.111L292.422 400.889ZM267.732 372.05C261.732 359.146 258.477 343.87 258.303 325.946L234.304 326.179C234.505 346.88 238.282 365.635 245.969 382.169L267.732 372.05ZM258.304 326.062V311.297H234.304V326.062H258.304ZM258.304 311.297C258.304 293.002 261.481 277.353 267.498 264.08L245.64 254.17C237.971 271.085 234.304 290.217 234.304 311.297H258.304ZM267.498 264.08C273.502 250.839 281.717 241.215 292 234.643L279.076 214.42C264.422 223.785 253.324 237.223 245.64 254.17L267.498 264.08ZM292.02 234.63C302.493 227.909 314.55 224.438 328.569 224.438V200.438C310.339 200.438 293.709 205.029 279.057 214.432L292.02 234.63ZM328.569 224.438C342.943 224.438 355.087 227.898 365.42 234.502L378.344 214.279C363.739 204.945 347.008 200.438 328.569 200.438V224.438ZM365.508 234.558C375.827 241.027 384.001 250.561 389.896 263.743L411.805 253.945C404.2 236.939 393.062 223.505 378.256 214.223L365.508 234.558ZM389.908 263.768C395.828 276.925 398.976 292.67 398.976 311.297H422.976C422.976 289.986 419.373 270.762 411.794 253.919L389.908 263.768ZM398.976 311.297V324.234H422.976V311.297H398.976ZM396.116 311.016C396.116 285.365 391.002 263.792 379.075 247.965L359.908 262.41C367.48 272.458 372.116 288.104 372.116 311.016H396.116ZM379.1 247.999C366.888 231.678 349.544 223.641 328.569 223.641V247.641C342.658 247.641 352.594 252.635 359.883 262.376L379.1 247.999ZM328.569 223.641C307.941 223.641 290.863 231.767 278.635 247.954L297.785 262.421C305.245 252.545 315.072 247.641 328.569 247.641V223.641ZM278.627 247.965C266.809 263.646 261.464 284.471 261.164 309.041L285.162 309.334C285.425 287.779 290.111 272.604 297.793 262.41L278.627 247.965ZM261.163 309.188V324.234H285.163V309.188H261.163ZM261.163 324.234C261.163 349.3 266.391 370.611 278.233 386.851L297.625 372.711C289.779 361.951 285.163 346.232 285.163 324.234H261.163ZM278.288 386.927C290.592 403.525 307.882 411.891 328.851 411.891V387.891C315.132 387.891 305.141 382.85 297.569 372.635L278.288 386.927ZM328.851 411.891C349.62 411.891 366.847 404.126 378.925 388.14L359.776 373.672C352.729 382.999 342.957 387.891 328.851 387.891V411.891ZM378.951 388.106C390.625 372.541 395.818 351.429 396.115 326.345L372.117 326.061C371.852 348.415 367.202 363.772 359.751 373.706L378.951 388.106ZM396.116 326.203V311.016H372.116V326.203H396.116ZM610.275 420V432H622.275V420H610.275ZM583.134 420L573.088 426.563L576.64 432H583.134V420ZM480.056 262.219L490.102 255.656L468.056 221.91V262.219H480.056ZM480.056 420V432H492.056V420H480.056ZM452.916 420H440.916V432H452.916V420ZM452.916 215.25V203.25H440.916V215.25H452.916ZM480.056 215.25L490.108 208.695L486.557 203.25H480.056V215.25ZM583.416 373.734L573.364 380.29L595.416 414.102V373.734H583.416ZM583.416 215.25V203.25H571.416V215.25H583.416ZM610.275 215.25H622.275V203.25H610.275V215.25ZM581.166 164.906H593.166V154.011L582.322 152.962L581.166 164.906ZM572.447 189.516L563.639 181.365L563.606 181.401L563.574 181.437L572.447 189.516ZM529.838 191.766L523.327 201.846L523.374 201.877L523.422 201.907L529.838 191.766ZM519.994 186.562L516.199 197.947L516.515 198.052L516.836 198.14L519.994 186.562ZM503.259 190.078L512.023 198.276L512.088 198.207L512.151 198.136L503.259 190.078ZM499.181 201.328L498.505 213.309L511.181 214.025V201.328H499.181ZM481.744 200.344H469.744V211.685L481.067 212.325L481.744 200.344ZM490.181 175.453L481.134 167.569L481.102 167.606L481.07 167.644L490.181 175.453ZM541.65 177.844L537.585 189.134L537.655 189.159L537.725 189.184L541.65 177.844ZM559.65 174.328L550.52 166.541L550.453 166.62L550.387 166.7L559.65 174.328ZM563.728 163.219L564.884 151.275L551.728 150.001V163.219H563.728ZM610.275 408H583.134V432H610.275V408ZM593.181 413.437L490.102 255.656L470.01 268.782L573.088 426.563L593.181 413.437ZM468.056 262.219V420H492.056V262.219H468.056ZM480.056 408H452.916V432H480.056V408ZM464.916 420V215.25H440.916V420H464.916ZM452.916 227.25H480.056V203.25H452.916V227.25ZM470.005 221.805L573.364 380.29L593.467 367.179L490.108 208.695L470.005 221.805ZM595.416 373.734V215.25H571.416V373.734H595.416ZM583.416 227.25H610.275V203.25H583.416V227.25ZM598.275 215.25V420H622.275V215.25H598.275ZM569.166 164.906C569.166 172.597 567.032 177.699 563.639 181.365L581.254 197.666C589.486 188.77 593.166 177.465 593.166 164.906H569.166ZM563.574 181.437C560.168 185.177 556.238 186.938 550.931 186.938V210.938C562.875 210.938 573.288 206.417 581.32 197.594L563.574 181.437ZM550.931 186.938C548.016 186.938 546.029 186.576 544.742 186.147L537.152 208.915C541.49 210.361 546.159 210.938 550.931 210.938V186.938ZM544.742 186.147C543.317 185.672 540.586 184.366 536.253 181.625L523.422 201.907C528.276 204.978 532.952 207.515 537.152 208.915L544.742 186.147ZM536.348 181.685C531.91 178.819 527.216 176.094 523.151 174.985L516.836 198.14C516.619 198.08 517.053 198.185 518.394 198.894C519.624 199.545 521.254 200.507 523.327 201.846L536.348 181.685ZM523.789 175.178C520.321 174.023 516.692 173.578 513.103 173.578V197.578C514.764 197.578 515.729 197.79 516.199 197.947L523.789 175.178ZM513.103 173.578C505.673 173.578 499.224 176.661 494.368 182.02L512.151 198.136C512.358 197.908 512.512 197.778 512.604 197.709C512.693 197.642 512.74 197.621 512.749 197.617C512.756 197.614 512.766 197.609 512.798 197.602C512.832 197.595 512.927 197.578 513.103 197.578V173.578ZM494.496 181.88C489.377 187.352 487.181 194.194 487.181 201.328H511.181C511.181 199.275 511.704 198.617 512.023 198.276L494.496 181.88ZM499.858 189.347L482.42 188.363L481.067 212.325L498.505 213.309L499.858 189.347ZM493.744 200.344C493.744 192.691 495.825 187.307 499.292 183.263L481.07 167.644C473.287 176.724 469.744 187.934 469.744 200.344H493.744ZM499.228 183.337C502.664 179.394 506.581 177.609 511.838 177.609V153.609C499.656 153.609 489.136 158.387 481.134 167.569L499.228 183.337ZM511.838 177.609C513.981 177.609 515.538 177.915 516.661 178.317L524.733 155.715C520.606 154.241 516.256 153.609 511.838 153.609V177.609ZM516.661 178.317C518.134 178.843 520.876 180.171 525.179 182.771L537.59 162.229C532.893 159.391 528.509 157.063 524.733 155.715L516.661 178.317ZM525.179 182.771C529.783 185.552 534.056 187.864 537.585 189.134L545.715 166.553C544.557 166.136 541.986 164.885 537.59 162.229L525.179 182.771ZM537.725 189.184C541.574 190.516 545.591 191.109 549.666 191.109V167.109C547.928 167.109 546.601 166.859 545.575 166.504L537.725 189.184ZM549.666 191.109C557.382 191.109 564.073 187.834 568.913 181.957L550.387 166.7C550.211 166.913 550.089 167.021 550.035 167.064C549.984 167.105 549.975 167.104 550.002 167.091C550.03 167.078 550.043 167.077 550.017 167.082C549.989 167.089 549.879 167.109 549.666 167.109V191.109ZM568.78 182.115C573.365 176.74 575.728 170.27 575.728 163.219H551.728C551.728 164.605 551.372 165.542 550.52 166.541L568.78 182.115ZM562.572 175.163L580.01 176.85L582.322 152.962L564.884 151.275L562.572 175.163ZM775.262 366.562L786.532 362.44L783.65 354.562H775.262V366.562ZM689.481 366.562V354.562H681.051L678.192 362.493L689.481 366.562ZM670.215 420V432H678.645L681.504 424.07L670.215 420ZM642.371 420L631.161 415.719L624.944 432H642.371V420ZM720.559 215.25V203.25H712.296L709.348 210.969L720.559 215.25ZM744.184 215.25L755.392 210.962L752.441 203.25H744.184V215.25ZM822.512 420V432H839.951L833.72 415.712L822.512 420ZM794.809 420L783.539 424.122L786.421 432H794.809V420ZM697.637 344.344L686.356 340.252L680.52 356.344H697.637V344.344ZM767.246 344.344V356.344H784.387L778.522 340.238L767.246 344.344ZM732.371 248.578L743.647 244.472L732.348 213.447L721.09 244.487L732.371 248.578ZM775.262 354.562H689.481V378.562H775.262V354.562ZM678.192 362.493L658.926 415.93L681.504 424.07L700.769 370.632L678.192 362.493ZM670.215 408H642.371V432H670.215V408ZM653.582 424.281L731.769 219.531L709.348 210.969L631.161 415.719L653.582 424.281ZM720.559 227.25H744.184V203.25H720.559V227.25ZM732.976 219.538L811.304 424.288L833.72 415.712L755.392 210.962L732.976 219.538ZM822.512 408H794.809V432H822.512V408ZM806.078 415.878L786.532 362.44L763.992 370.685L783.539 424.122L806.078 415.878ZM697.637 356.344H767.246V332.344H697.637V356.344ZM778.522 340.238L743.647 244.472L721.096 252.684L755.971 348.45L778.522 340.238ZM721.09 244.487L686.356 340.252L708.918 348.435L743.652 252.67L721.09 244.487ZM1081.75 420V432H1093.75V420H1081.75ZM1054.61 420L1044.56 426.563L1048.12 432H1054.61V420ZM951.533 262.219L961.579 255.656L939.533 221.91V262.219H951.533ZM951.533 420V432H963.533V420H951.533ZM924.392 420H912.392V432H924.392V420ZM924.392 215.25V203.25H912.392V215.25H924.392ZM951.533 215.25L961.584 208.695L958.033 203.25H951.533V215.25ZM1054.89 373.734L1044.84 380.29L1066.89 414.102V373.734H1054.89ZM1054.89 215.25V203.25H1042.89V215.25H1054.89ZM1081.75 215.25H1093.75V203.25H1081.75V215.25ZM1081.75 408H1054.61V432H1081.75V408ZM1064.66 413.437L961.579 255.656L941.486 268.782L1044.56 426.563L1064.66 413.437ZM939.533 262.219V420H963.533V262.219H939.533ZM951.533 408H924.392V432H951.533V408ZM936.392 420V215.25H912.392V420H936.392ZM924.392 227.25H951.533V203.25H924.392V227.25ZM941.481 221.805L1044.84 380.29L1064.94 367.179L961.584 208.695L941.481 221.805ZM1066.89 373.734V215.25H1042.89V373.734H1066.89ZM1054.89 227.25H1081.75V203.25H1054.89V227.25ZM1069.75 215.25V420H1093.75V215.25H1069.75ZM1246.88 325.359V337.359H1258.88V325.359H1246.88ZM1158.14 325.359V313.359H1146.14V325.359H1158.14ZM1158.14 397.922H1146.14V409.922H1158.14V397.922ZM1261.22 397.922H1273.22V385.922H1261.22V397.922ZM1261.22 420V432H1273.22V420H1261.22ZM1131.14 420H1119.14V432H1131.14V420ZM1131.14 215.25V203.25H1119.14V215.25H1131.14ZM1259.82 215.25H1271.82V203.25H1259.82V215.25ZM1259.82 237.469V249.469H1271.82V237.469H1259.82ZM1158.14 237.469V225.469H1146.14V237.469H1158.14ZM1158.14 303.281H1146.14V315.281H1158.14V303.281ZM1246.88 303.281H1258.88V291.281H1246.88V303.281ZM1246.88 313.359H1158.14V337.359H1246.88V313.359ZM1146.14 325.359V397.922H1170.14V325.359H1146.14ZM1158.14 409.922H1261.22V385.922H1158.14V409.922ZM1249.22 397.922V420H1273.22V397.922H1249.22ZM1261.22 408H1131.14V432H1261.22V408ZM1143.14 420V215.25H1119.14V420H1143.14ZM1131.14 227.25H1259.82V203.25H1131.14V227.25ZM1247.82 215.25V237.469H1271.82V215.25H1247.82ZM1259.82 225.469H1158.14V249.469H1259.82V225.469ZM1146.14 237.469V303.281H1170.14V237.469H1146.14ZM1158.14 315.281H1246.88V291.281H1158.14V315.281ZM1234.88 303.281V325.359H1258.88V303.281H1234.88ZM1371.37 337.172L1381.94 331.499L1378.55 325.172H1371.37V337.172ZM1323.27 337.172V325.172H1311.27V337.172H1323.27ZM1323.27 420V432H1335.27V420H1323.27ZM1296.13 420H1284.13V432H1296.13V420ZM1296.13 215.25V203.25H1284.13V215.25H1296.13ZM1417.07 231L1409.3 240.15L1409.32 240.165L1409.34 240.179L1417.07 231ZM1425.37 310.172L1415.69 303.08L1415.66 303.111L1415.64 303.142L1425.37 310.172ZM1396.68 331.406L1392.4 320.195L1379.49 325.124L1386.18 337.217L1396.68 331.406ZM1444.77 418.312H1456.77V415.214L1455.27 412.502L1444.77 418.312ZM1444.77 420V432H1456.77V420H1444.77ZM1415.8 420L1405.23 425.673L1408.62 432H1415.8V420ZM1323.27 315.094H1311.27V327.094H1323.27V315.094ZM1396.68 304.688L1388.8 295.637L1388.77 295.66L1388.75 295.683L1396.68 304.688ZM1397.24 247.734L1389.21 256.654L1389.24 256.679L1389.27 256.703L1397.24 247.734ZM1364.62 237.469L1364.69 225.469L1364.66 225.469H1364.62V237.469ZM1323.27 237.469V225.469H1311.27V237.469H1323.27ZM1371.37 325.172H1323.27V349.172H1371.37V325.172ZM1311.27 337.172V420H1335.27V337.172H1311.27ZM1323.27 408H1296.13V432H1323.27V408ZM1308.13 420V215.25H1284.13V420H1308.13ZM1296.13 227.25H1363.91V203.25H1296.13V227.25ZM1363.91 227.25C1385.31 227.25 1399.85 232.132 1409.3 240.15L1424.83 221.85C1409.53 208.868 1388.64 203.25 1363.91 203.25V227.25ZM1409.34 240.179C1418.48 247.881 1423.77 259.429 1423.77 276.844H1447.77C1447.77 254.134 1440.59 235.119 1424.8 221.821L1409.34 240.179ZM1423.77 276.844C1423.77 287.275 1420.98 295.848 1415.69 303.08L1435.05 317.264C1443.62 305.558 1447.77 291.912 1447.77 276.844H1423.77ZM1415.64 303.142C1410.33 310.486 1402.78 316.233 1392.4 320.195L1400.96 342.617C1415.14 337.204 1426.71 328.796 1435.09 317.201L1415.64 303.142ZM1386.18 337.217L1434.27 424.123L1455.27 412.502L1407.18 325.596L1386.18 337.217ZM1432.77 418.312V420H1456.77V418.312H1432.77ZM1444.77 408H1415.8V432H1444.77V408ZM1426.38 414.327L1381.94 331.499L1360.79 342.845L1405.23 425.673L1426.38 414.327ZM1323.27 327.094H1364.76V303.094H1323.27V327.094ZM1364.76 327.094C1380.25 327.094 1393.99 323.048 1404.61 313.692L1388.75 295.683C1383.62 300.202 1376.08 303.094 1364.76 303.094V327.094ZM1404.56 313.738C1415.43 304.277 1420.63 291.548 1420.63 276.844H1396.63C1396.63 285.389 1393.87 291.223 1388.8 295.637L1404.56 313.738ZM1420.63 276.844C1420.63 261.668 1415.98 248.333 1405.21 238.765L1389.27 256.703C1393.69 260.636 1396.63 266.707 1396.63 276.844H1420.63ZM1405.27 238.815C1394.83 229.421 1380.68 225.574 1364.69 225.469L1364.54 249.468C1377.05 249.551 1384.65 252.548 1389.21 256.654L1405.27 238.815ZM1364.62 225.469H1323.27V249.469H1364.62V225.469ZM1311.27 237.469V315.094H1335.27V237.469H1311.27ZM1504.15 420V432H1516.15V420H1504.15ZM1477.15 420H1465.15V432H1477.15V420ZM1477.15 215.25V203.25H1465.15V215.25H1477.15ZM1504.15 215.25H1516.15V203.25H1504.15V215.25ZM1504.15 408H1477.15V432H1504.15V408ZM1489.15 420V215.25H1465.15V420H1489.15ZM1477.15 227.25H1504.15V203.25H1477.15V227.25ZM1492.15 215.25V420H1516.15V215.25H1492.15ZM1670.68 366.562L1681.95 362.44L1679.07 354.562H1670.68V366.562ZM1584.9 366.562V354.562H1576.47L1573.61 362.493L1584.9 366.562ZM1565.64 420V432H1574.07L1576.92 424.07L1565.64 420ZM1537.79 420L1526.58 415.719L1520.36 432H1537.79V420ZM1615.98 215.25V203.25H1607.72L1604.77 210.969L1615.98 215.25ZM1639.6 215.25L1650.81 210.962L1647.86 203.25H1639.6V215.25ZM1717.93 420V432H1735.37L1729.14 415.712L1717.93 420ZM1690.23 420L1678.96 424.122L1681.84 432H1690.23V420ZM1593.06 344.344L1581.78 340.252L1575.94 356.344H1593.06V344.344ZM1662.67 344.344V356.344H1679.81L1673.94 340.238L1662.67 344.344ZM1627.79 248.578L1639.07 244.472L1627.77 213.447L1616.51 244.487L1627.79 248.578ZM1670.68 354.562H1584.9V378.562H1670.68V354.562ZM1573.61 362.493L1554.35 415.93L1576.92 424.07L1596.19 370.632L1573.61 362.493ZM1565.64 408H1537.79V432H1565.64V408ZM1549 424.281L1627.19 219.531L1604.77 210.969L1526.58 415.719L1549 424.281ZM1615.98 227.25H1639.6V203.25H1615.98V227.25ZM1628.4 219.538L1706.73 424.288L1729.14 415.712L1650.81 210.962L1628.4 219.538ZM1717.93 408H1690.23V432H1717.93V408ZM1701.5 415.878L1681.95 362.44L1659.41 370.685L1678.96 424.122L1701.5 415.878ZM1593.06 356.344H1662.67V332.344H1593.06V356.344ZM1673.94 340.238L1639.07 244.472L1616.52 252.684L1651.39 348.45L1673.94 340.238ZM1616.51 244.487L1581.78 340.252L1604.34 348.435L1639.07 252.67L1616.51 244.487Z" fill="white"/>
</g>
<defs>
<filter id="filter0_d" x="1721.46" y="49" width="569.164" height="400" filterUnits="userSpaceOnUse" color-interpolation-filters="sRGB">
<feFlood flood-opacity="0" result="BackgroundImageFix"/>
<feColorMatrix in="SourceAlpha" type="matrix" values="0 0 0 0 0 0 0 0 0 0 0 0 0 0 0 0 0 0 127 0"/>
<feOffset dx="-38" dy="4"/>
<feGaussianBlur stdDeviation="2"/>
<feColorMatrix type="matrix" values="0 0 0 0 1 0 0 0 0 1 0 0 0 0 1 0 0 0 0.25 0"/>
<feBlend mode="normal" in2="BackgroundImageFix" result="effect1_dropShadow"/>
<feBlend mode="normal" in="SourceGraphic" in2="effect1_dropShadow" result="shape"/>
</filter>
<filter id="filter1_d" x="37.4219" y="37.2188" width="915.539" height="123.188" filterUnits="userSpaceOnUse" color-interpolation-filters="sRGB">
<feFlood flood-opacity="0" result="BackgroundImageFix"/>
<feColorMatrix in="SourceAlpha" type="matrix" values="0 0 0 0 0 0 0 0 0 0 0 0 0 0 0 0 0 0 127 0"/>
<feOffset dx="-22" dy="4"/>
<feGaussianBlur stdDeviation="2"/>
<feColorMatrix type="matrix" values="0 0 0 0 1 0 0 0 0 1 0 0 0 0 1 0 0 0 0.25 0"/>
<feBlend mode="normal" in2="BackgroundImageFix" result="effect1_dropShadow"/>
<feBlend mode="normal" in="SourceGraphic" in2="effect1_dropShadow" result="shape"/>
</filter>
<filter id="filter2_d" x="0.0356445" y="150.001" width="1735.34" height="292.811" filterUnits="userSpaceOnUse" color-interpolation-filters="sRGB">
<feFlood flood-opacity="0" result="BackgroundImageFix"/>
<feColorMatrix in="SourceAlpha" type="matrix" values="0 0 0 0 0 0 0 0 0 0 0 0 0 0 0 0 0 0 127 0"/>
<feOffset dx="-47" dy="4"/>
<feGaussianBlur stdDeviation="2"/>
<feColorMatrix type="matrix" values="0 0 0 0 1 0 0 0 0 1 0 0 0 0 1 0 0 0 0.25 0"/>
<feBlend mode="normal" in2="BackgroundImageFix" result="effect1_dropShadow"/>
<feBlend mode="normal" in="SourceGraphic" in2="effect1_dropShadow" result="shape"/>
</filter>
</defs>
</svg>
